<?xml version="1.0" encoding="utf-8"?>
<!-- Generator: Adobe Illustrator 19.2.0, SVG Export Plug-In . SVG Version: 6.00 Build 0)  -->
<svg version="1.1" id="Layer_1" xmlns="http://www.w3.org/2000/svg" xmlns:xlink="http://www.w3.org/1999/xlink" x="0px" y="0px"
	 viewBox="0 0 32 30" style="enable-background:new 0 0 32 30;" xml:space="preserve">
<style type="text/css">
	.st0{fill:#0D845D;}
	.st1{fill:#F5EE31;}
</style>
<g>
	<path class="st0" d="M11.5,30c1.9,0,3.5-1.6,3.5-3.5H8C8,28.4,9.6,30,11.5,30z"/>
	<path class="st0" d="M20,22v-9.5C20,7.8,16.2,4,11.5,4S3,7.8,3,12.5V22H0v3h23v-3H20z"/>
</g>
<path class="st1" d="M29.7,1H17.3C16,1,15,2,15,3.3v9.3c0,1.3,1,2.3,2.3,2.3h12.3c1.3,0,2.3-1,2.3-2.3V3.3C32,2,31,1,29.7,1z"/>
<g>
	<path class="st0" d="M22.9,10.5v0.9h-5.2c0-0.2,0-0.4,0.1-0.7s0.3-0.7,0.7-1.1c0.3-0.3,0.7-0.8,1.2-1.2c0.9-0.7,1.4-1.2,1.8-1.7
		c0.3-0.4,0.4-0.8,0.4-1.2c0-0.3-0.1-0.7-0.4-1c-0.2-0.2-0.7-0.4-1.1-0.4s-0.9,0.1-1.1,0.4S19,5.3,19,5.8l-1-0.1
		c0.1-0.8,0.3-1.3,0.8-1.7c0.4-0.4,1-0.6,1.8-0.6s1.3,0.2,1.8,0.7c0.4,0.4,0.7,0.8,0.7,1.4c0,0.3-0.1,0.7-0.2,0.9
		c-0.1,0.2-0.3,0.7-0.7,1c-0.3,0.3-0.8,0.8-1.6,1.4c-0.6,0.4-1,0.8-1.1,1c-0.2,0.2-0.3,0.3-0.4,0.6L22.9,10.5L22.9,10.5z"/>
	<path class="st0" d="M27.2,11.4V9.5h-3.4V8.6l3.7-5.2h0.8v5.1h1.1v0.9h-1.1v2H27.2z M27.2,8.6V5.1l-2.4,3.6L27.2,8.6L27.2,8.6z"/>
</g>
</svg>
