<?xml version="1.0" encoding="utf-8"?>
<!-- Generator: Adobe Illustrator 19.2.0, SVG Export Plug-In . SVG Version: 6.00 Build 0)  -->
<svg version="1.1" id="Layer_1" xmlns="http://www.w3.org/2000/svg" xmlns:xlink="http://www.w3.org/1999/xlink" x="0px" y="0px"
	 viewBox="0 0 102.7 23.3" style="enable-background:new 0 0 102.7 23.3;" xml:space="preserve">
<style type="text/css">
	.st0{fill:#38B589;}
	.st1{fill:#FFFFFF;}
	.st2{fill:url(#SVGID_1_);}
	.st3{fill:url(#SVGID_2_);}
</style>
<rect x="0.4" y="0.4" class="st0" width="22.4" height="22.4"/>
<g>
	<path class="st1" d="M0,0v23.3h23.3V0H0z M22.5,22.5H0.7V0.8h21.8V22.5z"/>
	
		<linearGradient id="SVGID_1_" gradientUnits="userSpaceOnUse" x1="6.65" y1="1730.5718" x2="6.65" y2="1724.3049" gradientTransform="matrix(1 0 0 1 0 -1708.2225)">
		<stop  offset="0" style="stop-color:#FFFFFF;stop-opacity:0"/>
		<stop  offset="1" style="stop-color:#FFFFFF"/>
	</linearGradient>
	<rect x="4.7" y="4.7" class="st2" width="3.9" height="17.8"/>
	
		<linearGradient id="SVGID_2_" gradientUnits="userSpaceOnUse" x1="-2572.4106" y1="2057.72" x2="-2572.4106" y2="2051.4529" gradientTransform="matrix(4.489659e-11 -1 1 4.489659e-11 -2035.3706 -2565.8108)">
		<stop  offset="0" style="stop-color:#FFFFFF;stop-opacity:0"/>
		<stop  offset="1" style="stop-color:#FFFFFF"/>
	</linearGradient>
	<polygon class="st3" points="4.7,4.7 4.7,8.5 22.5,8.5 22.5,4.7 	"/>
	<circle class="st1" cx="14" cy="14" r="2.3"/>
</g>
<g>
	<path class="st0" d="M29,11h5.8v2.3H29v5.3h-2.5v-13h9.3v2.3H29V11z"/>
	<path class="st0" d="M46.2,13.8c0,2.9-2.2,5-4.9,5s-4.8-2.1-4.8-5s2.2-5.1,4.8-5.1C44,8.7,46.2,10.9,46.2,13.8z M43.7,13.8
		c0-1.7-1.1-2.8-2.4-2.8c-1.3,0-2.4,1.2-2.4,2.8s1.1,2.7,2.4,2.7C42.6,16.5,43.7,15.4,43.7,13.8z"/>
	<path class="st0" d="M57,13.8c0,2.9-2.2,5-4.9,5s-4.8-2.1-4.8-5s2.2-5.1,4.8-5.1S57,10.9,57,13.8z M54.5,13.8
		c0-1.7-1.1-2.8-2.4-2.8c-1.3,0-2.4,1.2-2.4,2.8s1.1,2.7,2.4,2.7S54.5,15.4,54.5,13.8z"/>
	<path class="st0" d="M67,14.5c0,2.4-1.6,4.2-4.2,4.2s-4.2-1.8-4.2-4.2v-8H61v2.4h5.9v2.3H61v3.4c0,0.9,0.5,1.8,1.8,1.8
		c1.2,0,1.8-0.9,1.8-1.8v-0.9H67V14.5z"/>
	<path class="st0" d="M74.1,18.8c-1.2,0-2.2-0.4-2.9-1.2v1h-2.4V4.7h2.5v5.2C72,9.1,73,8.7,74.1,8.7c2.5,0,4.6,2.2,4.6,5
		C78.7,16.6,76.6,18.8,74.1,18.8z M73.8,11c-1.4,0-2.5,1.2-2.5,2.8c0,1.5,1.1,2.7,2.5,2.7s2.5-1.2,2.5-2.7
		C76.2,12.2,75.1,11,73.8,11z"/>
	<path class="st0" d="M89.7,18.6h-2.4v-1c-0.7,0.8-1.8,1.2-3,1.2c-2.5,0-4.6-2.2-4.6-5c0-2.9,2.1-5,4.6-5c1.2,0,2.2,0.4,3,1.2V9h2.4
		V18.6z M84.8,11c-1.4,0-2.5,1.2-2.5,2.8c0,1.5,1.1,2.7,2.5,2.7s2.5-1.2,2.5-2.7C87.2,12.2,86.1,11,84.8,11z"/>
	<path class="st0" d="M94.5,18.6H92V4.7h2.5V18.6z"/>
	<path class="st0" d="M99.4,18.6h-2.5V4.7h2.5V18.6z"/>
</g>
</svg>
