<?xml version="1.0" encoding="utf-8"?>
<!-- Generator: Adobe Illustrator 19.2.0, SVG Export Plug-In . SVG Version: 6.00 Build 0)  -->
<svg version="1.1" id="Layer_1" xmlns="http://www.w3.org/2000/svg" xmlns:xlink="http://www.w3.org/1999/xlink" x="0px" y="0px"
	 viewBox="0 0 20 20" style="enable-background:new 0 0 20 20;" xml:space="preserve">
<style type="text/css">
	.st0{fill:#B4B8C4;}
</style>
<path class="st0" d="M11,15.5c0,0,3.1-1.9,5.1-4.5c0,0,0.1-0.1,0.1-0.1c0.5-0.8,0.8-1.6,0.8-2.5c0-3-3.1-5.4-7-5.4S3,5.4,3,8.4
	c0,2.7,2.7,5,6.2,5.4l1.8,0.2V15.5z M9,20v-4.3c-4.5-0.4-8-3.5-8-7.3C1,4.3,5,1,10,1s9,3.3,9,7.4c0,1.2-0.4,2.4-1,3.4c0,0,0,0,0,0
	C15.6,15.1,9,20,9,20L9,20L9,20z"/>
<rect x="6" y="6" class="st0" width="8" height="2"/>
<rect x="6" y="9" class="st0" width="6" height="2"/>
</svg>
