<?xml version="1.0" encoding="utf-8"?>
<!-- Generator: Adobe Illustrator 19.2.0, SVG Export Plug-In . SVG Version: 6.00 Build 0)  -->
<svg version="1.1" id="Layer_1" xmlns="http://www.w3.org/2000/svg" xmlns:xlink="http://www.w3.org/1999/xlink" x="0px" y="0px"
	 viewBox="0 0 20 20" style="enable-background:new 0 0 20 20;" xml:space="preserve">
<style type="text/css">
	.st0{fill:#23B874;}
</style>
<path class="st0" d="M12.1,5.3l2.6,2.6c0.2,0.2,0.2,0.4,0,0.6L6,17.2l-2.7,0.4c-0.5,0.1-1-0.4-0.9-0.9L2.8,14l8.8-8.8
	C11.7,5.1,11.9,5.1,12.1,5.3z M17.6,5.6l-1.3,1.2C16.2,7,16,7,15.8,6.8l-2.6-2.6C13,4,13,3.8,13.2,3.6l1.3-1.2
	c0.5-0.5,1.4-0.5,1.9,0l1.3,1.3C18.2,4.2,18.2,5.1,17.6,5.6L17.6,5.6z"/>
</svg>
