<?xml version="1.0" encoding="utf-8"?>
<!-- Generator: Adobe Illustrator 19.2.0, SVG Export Plug-In . SVG Version: 6.00 Build 0)  -->
<svg version="1.1" id="Layer_1" xmlns="http://www.w3.org/2000/svg" xmlns:xlink="http://www.w3.org/1999/xlink" x="0px" y="0px"
	 viewBox="0 0 20 20" style="enable-background:new 0 0 20 20;" xml:space="preserve">
<style type="text/css">
	.st0{fill:#B4B8C4;}
</style>
<g>
	<path class="st0" d="M10,1.8c4.5,0,8.2,3.7,8.2,8.2s-3.7,8.2-8.2,8.2S1.8,14.5,1.8,10S5.5,1.8,10,1.8 M10,0C4.5,0,0,4.5,0,10
		s4.5,10,10,10s10-4.5,10-10S15.5,0,10,0L10,0z"/>
</g>
<ellipse class="st0" cx="6.5" cy="8" rx="1.5" ry="2"/>
<ellipse class="st0" cx="13.5" cy="8" rx="1.5" ry="2"/>
<path class="st0" d="M5.6,12c0.7,2.2,2.4,3.8,4.5,3.8s3.8-1.6,4.5-3.8H5.6z"/>
</svg>
