<?xml version="1.0" encoding="utf-8"?>
<!-- Generator: Adobe Illustrator 19.2.0, SVG Export Plug-In . SVG Version: 6.00 Build 0)  -->
<svg version="1.1" id="Layer_1" xmlns="http://www.w3.org/2000/svg" xmlns:xlink="http://www.w3.org/1999/xlink" x="0px" y="0px"
	 viewBox="0 0 20 20" style="enable-background:new 0 0 20 20;" xml:space="preserve">
<style type="text/css">
	.st0{fill:#B4B8C4;}
</style>
<path class="st0" d="M20,16.8c0-0.9-0.7-1.1-0.7-1.1s-1.9-0.8-3.1-1.3c-1.1-0.4-2-0.9-3-1.6c-0.9-0.6-0.7-1.2-0.7-1.7
	c0-0.5,1-1.3,1.6-2.5c0.3-0.6,0.2-3.7,0.2-3.7c0-3.6-2.8-3.9-3.8-3.9c-1,0-3.8,0.3-3.8,3.9c0,0-0.1,3.1,0.2,3.7
	c0.6,1.2,1.5,2,1.6,2.5c0,0.5,0.3,1.1-0.7,1.7c-1,0.6-1.9,1.1-3,1.6c-1.1,0.4-3.1,1.3-3.1,1.3S1.1,16,1,16.8C1,17.7,1,19,1,19h19
	C20,19,20,17.7,20,16.8z"/>
</svg>
