<?xml version="1.0" encoding="utf-8"?>
<!-- Generator: Adobe Illustrator 19.2.0, SVG Export Plug-In . SVG Version: 6.00 Build 0)  -->
<svg version="1.1" id="Layer_1" xmlns="http://www.w3.org/2000/svg" xmlns:xlink="http://www.w3.org/1999/xlink" x="0px" y="0px"
	 viewBox="0 0 20 20" style="enable-background:new 0 0 20 20;" xml:space="preserve">
<style type="text/css">
	.st0{fill:#B4B8C4;}
</style>
<g>
	<path class="st0" d="M9.5,2C4.8,2,1,5.8,1,10.5C1,15.2,4.8,19,9.5,19c4.7,0,8.5-3.8,8.5-8.5C18,5.8,14.2,2,9.5,2z M14.8,14.2
		L14.8,14.2l-0.4-0.7l-2.2,0.7L10.8,16l0.6,0.7c-0.6,0.2-1.3,0.3-2,0.3c-0.7,0-1.4-0.1-2-0.3l0.6-0.6l-1.5-1.8l-2.2-0.7l-0.3,0.6
		c-0.7-1-1.1-2.3-1.1-3.6l0.6,0.3l1.4-1.8l0.2-2.3L4.3,6.6c0.8-1,1.8-1.8,3-2.2L7.2,5.1l2.2,0.7l2.2-0.7l-0.1-0.7
		c1.3,0.4,2.4,1.2,3.1,2.3l-1,0.2l0.1,2.3l1.4,1.8l0.8-0.4c0,0,0,0,0,0c0,0,0,0,0,0C16,12.2,15.5,13.3,14.8,14.2z"/>
	<polygon class="st0" points="6.9,9.7 7.8,12.6 11,12.6 12,9.7 9.4,7.9 	"/>
</g>
</svg>
