<?xml version="1.0" encoding="utf-8"?>
<!-- Generator: Adobe Illustrator 19.2.0, SVG Export Plug-In . SVG Version: 6.00 Build 0)  -->
<svg version="1.1" id="Layer_1" xmlns="http://www.w3.org/2000/svg" xmlns:xlink="http://www.w3.org/1999/xlink" x="0px" y="0px"
	 viewBox="0 0 21 20" style="enable-background:new 0 0 21 20;" xml:space="preserve">
<style type="text/css">
	.st0{fill:#B4B8C4;}
</style>
<g>
	<path class="st0" d="M2.2,4.7c0.7,0,1.3,0.4,1.4,1l0.5,2.8C3,8.3,2.2,7.5,1.8,6.4c0-0.1-0.1-0.2-0.1-0.3c-0.1-0.2-0.3-1-0.2-1.2
		c0,0,0.1-0.1,0.3-0.1l0.1,0C2,4.7,2.1,4.7,2.2,4.7 M2.2,3.2c-0.2,0-0.3,0-0.5,0l-0.2,0c-2.2,0.6-1.3,2.6-1.1,3.5
		C0.9,8.6,2.5,10,4.5,10c0.2,0,0.5,0,0.7-0.1l0.7-0.1L5,5.4C4.8,4.1,3.6,3.2,2.2,3.2L2.2,3.2z"/>
</g>
<path class="st0" d="M17.3,2H3.6c0,0-0.6,6.5,1.9,9.3c0.6,0.6,1.1,1.2,2.4,1.8c1.9,0.9,1,3.1,1,3.1s-0.2,0.7-1,1.1
	c-0.7,0.5-1.4,1.3-1.4,2.5h7.8c0-1.2-0.6-2-1.4-2.5c-0.7-0.5-1-1.1-1-1.1s-0.9-2.2,1-3.1c1.3-0.7,1.9-1.2,2.4-1.8
	C18,8.6,17.3,2,17.3,2z"/>
<g>
	<path class="st0" d="M18.7,4.7L18.7,4.7c0.1,0,0.2,0,0.3,0l0.1,0c0.2,0.1,0.3,0.1,0.3,0.1c0,0,0,0,0,0c0.1,0.2-0.1,1-0.2,1.2
		c0,0.1-0.1,0.2-0.1,0.3c-0.3,1.1-1.2,1.9-2.2,2.1l0.5-2.8C17.5,5.1,18.1,4.7,18.7,4.7 M18.7,3.2c-1.4,0-2.6,0.9-2.9,2.2l-0.8,4.4
		l0.7,0.1c0.2,0,0.5,0.1,0.7,0.1c2,0,3.6-1.3,4.1-3.2c0.3-0.9,1.2-2.9-1.1-3.5l-0.2,0C19.1,3.2,18.9,3.2,18.7,3.2L18.7,3.2z"/>
</g>
</svg>
