<?xml version="1.0" encoding="utf-8"?>
<!-- Generator: Adobe Illustrator 19.2.0, SVG Export Plug-In . SVG Version: 6.00 Build 0)  -->
<svg version="1.1" id="Layer_1" xmlns="http://www.w3.org/2000/svg" xmlns:xlink="http://www.w3.org/1999/xlink" x="0px" y="0px"
	 viewBox="0 0 20 20" style="enable-background:new 0 0 20 20;" xml:space="preserve">
<style type="text/css">
	.st0{fill:#8585A5;}
</style>
<path class="st0" d="M18.2,2.7c-2.3-2.3-6.1-2.3-8.5,0L9,3.4c0.8,0,1.5,0.2,2.1,0.7l0,0c1.6-1.6,4.1-1.6,5.7,0s1.6,4.1,0,5.7
	l-7.1,7.1c-1.6,1.6-4.1,1.6-5.7,0s-1.6-4.1,0-5.7L7.3,8c0.6-0.6,1.5-0.6,2.1,0c0.6,0.6,0.6,1.5,0,2.1L5.5,14l1.4,1.4l3.9-3.9
	c1.4-1.4,1.4-3.6,0-4.9s-3.6-1.4-4.9,0L2.7,9.8c-2.3,2.3-2.3,6.1,0,8.5s6.1,2.3,8.5,0l7.1-7.1C20.6,8.8,20.6,5,18.2,2.7z"/>
</svg>
