<?xml version="1.0" encoding="utf-8"?>
<!-- Generator: Adobe Illustrator 19.2.0, SVG Export Plug-In . SVG Version: 6.00 Build 0)  -->
<svg version="1.1" id="Layer_1" xmlns="http://www.w3.org/2000/svg" xmlns:xlink="http://www.w3.org/1999/xlink" x="0px" y="0px"
	 viewBox="0 0 1090.8 1026.2" style="enable-background:new 0 0 1090.8 1026.2;" xml:space="preserve">
<style type="text/css">
	.st0{fill:#23B874;}
	.st1{fill:#138C4F;}
	.st2{fill:#1DAA67;}
	.st3{fill:#1B9655;}
	.st4{fill:#CECCAA;}
	.st5{fill:#E4E2BE;}
	.st6{fill:#086635;}
	.st7{fill:#1CA05A;}
	.st8{fill:#1C4999;}
	.st9{fill:#0E2E76;}
	.st10{fill:#DA9465;}
	.st11{fill:#CC8656;}
	.st12{fill:#F2A979;}
</style>
<path class="st0" d="M1090.8,80.7L26.6,34L0.4,460.9C118.9,549.2,285.8,580.6,473,580.6c286.5,0,574-3.7,617.8-42.3V80.7z"/>
<path class="st1" d="M527.6,619l432-538.3h131.2V0H0.4v538.8c118.5,88.3,27.7,40.5,214.9,40.5C223.5,579.3,519.4,619,527.6,619z"/>
<rect x="790.3" y="274.9" class="st1" width="300.5" height="11.1"/>
<polygon class="st0" points="89.6,562.2 754.2,608.3 1090.8,669.3 1090.8,1026.2 0.4,1026.2 0.4,669.3 "/>
<path class="st2" d="M229.8,751.5c0,0-10.3,1.3,50.3,0s550.3,1.7,563.5,0.6c13.2-1.2,20.6,8.9,6.4,10.1c-14.2,1.3-42,0.9-87.1,5.2
	s-66.8,0.8-122,0c-55.1-0.8-405.5,5.9-411.8-12.8"/>
<rect x="747.5" y="435.5" class="st1" width="343.3" height="11.1"/>
<rect x="1.2" y="435.5" class="st3" width="523" height="11.1"/>
<polygon class="st3" points="0.2,286.1 794.8,286.1 801.7,274.9 0.2,274.9 "/>
<rect x="734.6" y="138.8" class="st1" width="356.2" height="11.1"/>
<rect x="0.4" y="538.3" class="st4" width="1090.4" height="131"/>
<path class="st5" d="M967.4,1025.9C736.5,773.1,83,846.7,83,846.7l16.3,5.2c514.9-33.4,728.3,114.3,792.5,173.9L967.4,1025.9
	L967.4,1025.9L967.4,1025.9z"/>
<polygon class="st5" points="0,814.5 608.2,1025.5 496.6,1026.2 0,825.7 "/>
<path class="st6" d="M700.8,618.9c0,0-12.3,1.1-16.1-3l16.9-10.5L700.8,618.9z"/>
<circle class="st3" cx="246.9" cy="60.8" r="12.2"/>
<circle class="st3" cx="583.3" cy="235.7" r="13.8"/>
<circle class="st3" cx="400.1" cy="80.8" r="12.2"/>
<circle class="st3" cx="635.2" cy="261.3" r="11.8"/>
<circle class="st3" cx="84.7" cy="88.1" r="13.6"/>
<circle class="st3" cx="52" cy="50" r="13.6"/>
<ellipse class="st3" cx="127.8" cy="387" rx="12.2" ry="12.7"/>
<ellipse class="st3" cx="77.9" cy="372.9" rx="9.8" ry="10.2"/>
<circle class="st3" cx="690.4" cy="47.2" r="11.8"/>
<circle class="st3" cx="419.3" cy="86.5" r="10.4"/>
<circle class="st3" cx="264.7" cy="70.5" r="9.8"/>
<circle class="st3" cx="308.2" cy="102" r="10.5"/>
<circle class="st3" cx="617.4" cy="239.1" r="7.2"/>
<circle class="st3" cx="621.6" cy="216.8" r="7.2"/>
<ellipse class="st3" cx="179.6" cy="374.3" rx="6.3" ry="6.6"/>
<circle class="st3" cx="419.3" cy="29.6" r="6.3"/>
<circle class="st3" cx="1036.5" cy="47.9" r="10.4"/>
<circle class="st3" cx="370.3" cy="29.6" r="6.3"/>
<circle class="st3" cx="498.4" cy="255.7" r="10.4"/>
<circle class="st3" cx="482" cy="80.8" r="6.3"/>
<polygon class="st5" points="0.4,538.3 0.4,669.3 845.3,669.3 690.4,538.3 "/>
<circle class="st3" cx="506.3" cy="103.2" r="10.5"/>
<circle class="st3" cx="264.8" cy="29.6" r="6.3"/>
<circle class="st3" cx="617.4" cy="271.7" r="11.9"/>
<circle class="st3" cx="394.8" cy="43.2" r="6.3"/>
<circle class="st3" cx="750.4" cy="49.5" r="10.2"/>
<circle class="st3" cx="757.9" cy="245.3" r="10.4"/>
<ellipse class="st3" cx="191.8" cy="368.2" rx="10.5" ry="11"/>
<circle class="st3" cx="786.9" cy="195.4" r="8.5"/>
<circle class="st3" cx="40.2" cy="57.3" r="11.8"/>
<circle class="st3" cx="123.6" cy="107.7" r="8.6"/>
<circle class="st3" cx="284.1" cy="63.3" r="10.5"/>
<circle class="st3" cx="80.4" cy="107.7" r="8.6"/>
<ellipse class="st3" cx="39" cy="394.9" rx="10.5" ry="11"/>
<circle class="st3" cx="13.6" cy="372.9" r="7.3"/>
<circle class="st3" cx="256.9" cy="223.3" r="12.1"/>
<ellipse class="st3" cx="74.4" cy="415.6" rx="6.3" ry="6.6"/>
<circle class="st3" cx="232.7" cy="245.6" r="7.3"/>
<circle class="st3" cx="1030.5" cy="47.9" r="17.2"/>
<circle class="st3" cx="206.5" cy="99.5" r="8.6"/>
<circle class="st3" cx="121.2" cy="43.2" r="11.8"/>
<circle class="st3" cx="678.6" cy="51.5" r="6.1"/>
<ellipse class="st3" cx="39" cy="348.2" rx="10.5" ry="11"/>
<circle class="st3" cx="90.9" cy="47.2" r="7.1"/>
<ellipse class="st3" cx="54.9" cy="368.8" rx="5.3" ry="5.5"/>
<ellipse class="st3" cx="157.8" cy="364.1" rx="5.3" ry="5.5"/>
<circle class="st3" cx="259.1" cy="348.2" r="6.5"/>
<circle class="st3" cx="424.9" cy="425.3" r="8.6"/>
<circle class="st3" cx="439.8" cy="396.2" r="13.7"/>
<circle class="st3" cx="960.7" cy="50.7" r="6.1"/>
<circle class="st3" cx="624.3" cy="48.5" r="5.1"/>
<circle class="st3" cx="475.8" cy="93.7" r="8"/>
<ellipse transform="matrix(0.9966 -8.285419e-02 8.285419e-02 0.9966 -6.0466 51.4952)" class="st3" cx="617.4" cy="98.6" rx="11.7" ry="11.7"/>
<ellipse transform="matrix(0.9966 -8.285419e-02 8.285419e-02 0.9966 -6.2316 52.4408)" class="st3" cx="628.7" cy="101.3" rx="9.4" ry="9.4"/>
<ellipse transform="matrix(0.9966 -8.285419e-02 8.285419e-02 0.9966 -13.2693 56.8665)" class="st3" cx="678.5" cy="188.3" rx="7.3" ry="7.3"/>
<ellipse transform="matrix(0.9966 -8.285419e-02 8.285419e-02 0.9966 -13.8964 54.942)" class="st3" cx="655" cy="194.9" rx="10.8" ry="10.8"/>
<ellipse transform="matrix(0.9966 -8.285419e-02 8.285419e-02 0.9966 -4.9345 58.2967)" class="st3" cx="699.9" cy="88.6" rx="10.1" ry="10.1"/>
<ellipse transform="matrix(0.9966 -8.285419e-02 8.285419e-02 0.9966 -14.4679 68.1704)" class="st3" cx="814.1" cy="208.4" rx="6" ry="6"/>
<ellipse transform="matrix(0.9966 -8.285419e-02 8.285419e-02 0.9966 -5.5052 45.3388)" class="st3" cx="543.5" cy="89" rx="10.1" ry="10.1"/>
<ellipse transform="matrix(0.9966 -8.285419e-02 8.285419e-02 0.9966 -3.7134 55.3161)" class="st3" cx="664.6" cy="72.4" rx="6.1" ry="6.1"/>
<ellipse transform="matrix(0.9966 -8.285419e-02 8.285419e-02 0.9966 -6.5765 46.1389)" class="st3" cx="552.6" cy="102.3" rx="6.1" ry="6.1"/>
<ellipse transform="matrix(0.9966 -8.285419e-02 8.285419e-02 0.9966 -13.4507 69.49)" class="st3" cx="830.5" cy="196.8" rx="9.9" ry="9.9"/>
<ellipse transform="matrix(0.9966 -8.285419e-02 8.285419e-02 0.9966 -12.6782 68.0962)" class="st3" cx="814.1" cy="186.8" rx="4.9" ry="4.9"/>
<ellipse transform="matrix(0.9966 -8.285419e-02 8.285419e-02 0.9966 -6.4272 49.1371)" class="st3" cx="588.8" cy="102" rx="5" ry="5"/>
<ellipse transform="matrix(0.4932 -0.8699 0.8699 0.4932 38.1212 265.8611)" class="st3" cx="247.2" cy="100.2" rx="11.7" ry="11.7"/>
<ellipse transform="matrix(0.4932 -0.8699 0.8699 0.4932 45.9259 286.5942)" class="st3" cx="268.9" cy="103.9" rx="9.4" ry="9.4"/>
<ellipse transform="matrix(0.4932 -0.8699 0.8699 0.4932 25.809 216.12)" class="st3" cx="198.4" cy="85.9" rx="6.1" ry="6.1"/>
<ellipse transform="matrix(0.4932 -0.8699 0.8699 0.4932 20.0488 204.4097)" class="st3" cx="185.5" cy="85" rx="10.1" ry="10.1"/>
<ellipse transform="matrix(0.4932 -0.8699 0.8699 0.4932 87.4566 338.9501)" class="st3" cx="334.6" cy="94.4" rx="10.1" ry="10.1"/>
<ellipse transform="matrix(0.4932 -0.8699 0.8699 0.4932 -29.8763 384.1105)" class="st7" cx="314.7" cy="217.7" rx="7.3" ry="7.3"/>
<ellipse transform="matrix(0.4932 -0.8699 0.8699 0.4932 53.0892 192.2911)" class="st3" cx="191.6" cy="50.6" rx="10.1" ry="10.1"/>
<ellipse transform="matrix(0.4932 -0.8699 0.8699 0.4932 85.3275 316.8336)" class="st3" cx="314.6" cy="85.2" rx="6.1" ry="6.1"/>
<ellipse transform="matrix(0.4932 -0.8699 0.8699 0.4932 35.9364 167.2839)" class="st3" cx="161.5" cy="52.8" rx="6.1" ry="6.1"/>
<ellipse transform="matrix(0.4932 -0.8699 0.8699 0.4932 -10.0802 424.5878)" class="st7" cx="359.4" cy="220.9" rx="12.1" ry="12.1"/>
<ellipse transform="matrix(0.4932 -0.8699 0.8699 0.4932 3.0563 411.4773)" class="st7" cx="354.7" cy="203.1" rx="6" ry="6"/>
<ellipse transform="matrix(0.4932 -0.8699 0.8699 0.4932 36.7249 236.9323)" class="st3" cx="221.7" cy="86.9" rx="5" ry="5"/>
<ellipse transform="matrix(0.974 -0.2264 0.2264 0.974 3.7206 135.6404)" class="st3" cx="593.2" cy="51.6" rx="6.3" ry="6.3"/>
<ellipse transform="matrix(0.974 -0.2264 0.2264 0.974 6.6685 128.7211)" class="st3" cx="564.5" cy="35.3" rx="10.5" ry="10.5"/>
<ellipse transform="matrix(0.974 -0.2264 0.2264 0.974 12.1273 134.1496)" class="st3" cx="590.9" cy="14.2" rx="8" ry="8"/>
<ellipse transform="matrix(0.9519 -0.3063 0.3063 0.9519 14.8599 162.7476)" class="st3" cx="526" cy="34" rx="10.1" ry="10.1"/>
<ellipse transform="matrix(0.9519 -0.3063 0.3063 0.9519 10.6721 161.399)" class="st3" cx="519.6" cy="46.7" rx="6.1" ry="6.1"/>
<ellipse transform="matrix(0.9519 -0.3063 0.3063 0.9519 13.3072 148.2153)" class="st3" cx="478.9" cy="31.7" rx="5" ry="5"/>
<circle class="st3" cx="287.3" cy="194.9" r="14.7"/>
<circle class="st3" cx="455" cy="216.8" r="11.7"/>
<circle class="st3" cx="806.6" cy="246.3" r="7.6"/>
<circle class="st3" cx="411.7" cy="203.9" r="12.7"/>
<ellipse transform="matrix(0.4932 -0.8699 0.8699 0.4932 -120.7947 545.304)" class="st3" cx="407.6" cy="376.3" rx="12.1" ry="12.1"/>
<ellipse transform="matrix(0.4932 -0.8699 0.8699 0.4932 117.0642 707.7192)" class="st3" cx="665.9" cy="253.4" rx="12.1" ry="12.1"/>
<ellipse transform="matrix(0.4932 -0.8699 0.8699 0.4932 126.5456 757.728)" class="st3" cx="713.6" cy="270.3" rx="7.3" ry="7.3"/>
<path class="st3" d="M220.9,388.9c-5.1-5.1-5.2-13.5-0.4-18.8c4.9-5.3,13-5.5,18-0.4c5.1,5.1,5.2,13.5,0.4,18.8
	C234.1,393.8,226,394,220.9,388.9z"/>
<path class="st3" d="M123.7,417.1c-4.1-4.1-4.2-10.8-0.3-15s10.4-4.4,14.4-0.3c4.1,4.1,4.2,10.8,0.3,15
	C134.2,421,127.8,421.2,123.7,417.1z"/>
<path class="st3" d="M235.7,421.9c-2.6-2.6-2.7-7-0.2-9.8s6.7-2.8,9.4-0.2s2.7,7,0.2,9.8S238.4,424.5,235.7,421.9z"/>
<path class="st3" d="M193.4,414.8c-4.4-4.4-4.5-11.6-0.3-16.2s11.2-4.7,15.5-0.3c4.4,4.4,4.5,11.6,0.3,16.2S197.8,419.2,193.4,414.8
	z"/>
<path class="st3" d="M270.3,375.8c1.7,5.8-1.5,11.9-7.1,13.6s-11.4-1.6-13.1-7.4c-1.7-5.8,1.5-11.9,7.1-13.6
	C262.8,366.7,268.7,370,270.3,375.8z"/>
<ellipse transform="matrix(0.9584 -0.2854 0.2854 0.9584 -63.5863 28.2987)" class="st3" cx="65.3" cy="232.3" rx="12.1" ry="12.1"/>
<ellipse transform="matrix(0.9584 -0.2854 0.2854 0.9584 -68.2021 26.606)" class="st3" cx="57.2" cy="247.3" rx="7.3" ry="7.3"/>
<circle class="st3" cx="1007.7" cy="43.5" r="12.2"/>
<circle class="st3" cx="717.3" cy="77.1" r="11.8"/>
<circle class="st3" cx="988.4" cy="37.8" r="10.4"/>
<circle class="st3" cx="517.9" cy="208.4" r="6.3"/>
<circle class="st3" cx="566.9" cy="208.4" r="6.3"/>
<circle class="st3" cx="925.8" cy="43.5" r="6.3"/>
<circle class="st3" cx="901.5" cy="21.1" r="10.5"/>
<circle class="st3" cx="517.9" cy="197.7" r="6.3"/>
<circle class="st3" cx="657.4" cy="74.8" r="10.2"/>
<circle class="st3" cx="729.2" cy="72.8" r="6.1"/>
<circle class="st3" cx="783.5" cy="75.9" r="5.1"/>
<circle class="st3" cx="932" cy="30.7" r="8"/>
<ellipse transform="matrix(0.9966 -8.285419e-02 8.285419e-02 0.9966 0.5882 65.5787)" class="st3" cx="790.4" cy="25.7" rx="11.7" ry="11.7"/>
<ellipse transform="matrix(0.9966 -8.285419e-02 8.285419e-02 0.9966 0.7732 64.6331)" class="st3" cx="779.1" cy="23" rx="9.4" ry="9.4"/>
<ellipse transform="matrix(0.9966 -8.285419e-02 8.285419e-02 0.9966 -0.5239 58.7772)" class="st3" cx="707.9" cy="35.7" rx="10.1" ry="10.1"/>
<ellipse transform="matrix(0.9966 -8.285419e-02 8.285419e-02 0.9966 4.680201e-02 71.735)" class="st3" cx="864.3" cy="35.3" rx="10.1" ry="10.1"/>
<ellipse transform="matrix(0.9966 -8.285419e-02 8.285419e-02 0.9966 -1.745 61.7578)" class="st3" cx="743.2" cy="51.9" rx="6.1" ry="6.1"/>
<ellipse transform="matrix(0.9966 -8.285419e-02 8.285419e-02 0.9966 1.1171 70.9267)" class="st3" cx="855.1" cy="22" rx="6.1" ry="6.1"/>
<ellipse transform="matrix(0.9966 -8.285419e-02 8.285419e-02 0.9966 0.9677 67.9285)" class="st3" cx="818.9" cy="22.3" rx="5" ry="5"/>
<ellipse transform="matrix(0.4932 -0.8699 0.8699 0.4932 517.7492 948.6501)" class="st3" cx="1073.1" cy="30" rx="10.1" ry="10.1"/>
<ellipse transform="matrix(0.974 -0.2264 0.2264 0.974 4.6951 186.3114)" class="st3" cx="814.6" cy="72.7" rx="6.3" ry="6.3"/>
<ellipse transform="matrix(0.974 -0.2264 0.2264 0.974 1.7257 193.2384)" class="st3" cx="843.3" cy="89.1" rx="10.5" ry="10.5"/>
<ellipse transform="matrix(0.974 -0.2264 0.2264 0.974 -3.7193 187.7808)" class="st3" cx="816.8" cy="110.1" rx="8" ry="8"/>
<ellipse transform="matrix(0.9519 -0.3063 0.3063 0.9519 14.7118 274.4097)" class="st3" cx="881.7" cy="90.3" rx="10.1" ry="10.1"/>
<ellipse transform="matrix(0.9519 -0.3063 0.3063 0.9519 18.9135 275.7859)" class="st3" cx="888.2" cy="77.6" rx="6.1" ry="6.1"/>
<ellipse transform="matrix(0.9519 -0.3063 0.3063 0.9519 16.2508 288.9836)" class="st3" cx="928.9" cy="92.7" rx="5" ry="5"/>
<circle class="st3" cx="375.5" cy="362.1" r="12.2"/>
<circle class="st3" cx="85.2" cy="395.7" r="11.8"/>
<circle class="st3" cx="345.9" cy="366" r="10.4"/>
<circle class="st3" cx="356.3" cy="413.4" r="6.3"/>
<circle class="st3" cx="405.3" cy="413.4" r="6.3"/>
<circle class="st3" cx="293.6" cy="362.1" r="6.3"/>
<circle class="st3" cx="372.9" cy="402.6" r="6.3"/>
<circle class="st3" cx="97" cy="391.5" r="6.1"/>
<circle class="st3" cx="151.4" cy="394.5" r="5.1"/>
<ellipse transform="matrix(0.9966 -8.285419e-02 8.285419e-02 0.9966 -30.3248 10.48)" class="st3" cx="111.1" cy="370.6" rx="6.1" ry="6.1"/>
<ellipse transform="matrix(0.974 -0.2264 0.2264 0.974 -83.8558 51.4546)" class="st3" cx="182.4" cy="391.3" rx="6.3" ry="6.3"/>
<ellipse transform="matrix(0.974 -0.2264 0.2264 0.974 -86.8175 58.4031)" class="st3" cx="211.2" cy="407.7" rx="10.5" ry="10.5"/>
<ellipse transform="matrix(0.974 -0.2264 0.2264 0.974 -92.2839 52.9531)" class="st3" cx="184.7" cy="428.8" rx="8" ry="8"/>
<ellipse transform="matrix(0.9519 -0.3063 0.3063 0.9519 -112.3153 102.0456)" class="st3" cx="269" cy="408.9" rx="10.1" ry="10.1"/>
<ellipse transform="matrix(0.9519 -0.3063 0.3063 0.9519 -104.3073 115.0991)" class="st3" cx="314.6" cy="389.9" rx="6.1" ry="6.1"/>
<ellipse transform="matrix(0.9519 -0.3063 0.3063 0.9519 -111.7131 110.6786)" class="st3" cx="296.8" cy="411.3" rx="5" ry="5"/>
<circle class="st3" cx="118.3" cy="368.2" r="10.2"/>
<ellipse transform="matrix(3.040777e-03 -1 1 3.040777e-03 456.0091 948.5818)" class="st3" cx="703.7" cy="245.6" rx="11.8" ry="11.8"/>
<ellipse transform="matrix(3.040777e-03 -1 1 3.040777e-03 307.6273 763.9739)" class="st3" cx="537" cy="227.7" rx="10.2" ry="10.2"/>
<ellipse transform="matrix(3.040777e-03 -1 1 3.040777e-03 474.8687 926.9327)" class="st3" cx="702.3" cy="225.3" rx="6.1" ry="6.1"/>
<ellipse transform="matrix(3.040777e-03 -1 1 3.040777e-03 128.8631 640.7567)" class="st7" cx="385.8" cy="255.8" rx="10.5" ry="10.5"/>
<ellipse transform="matrix(0.9968 -7.982735e-02 7.982735e-02 0.9968 -17.7769 38.5289)" class="st3" cx="473" cy="241.6" rx="11.7" ry="11.7"/>
<ellipse transform="matrix(0.9968 -7.982735e-02 7.982735e-02 0.9968 -18.546 42.885)" class="st3" cx="527.1" cy="253.4" rx="9.4" ry="9.4"/>
<ellipse transform="matrix(0.9968 -7.982735e-02 7.982735e-02 0.9968 -15.7651 59.6442)" class="st3" cx="738.1" cy="227" rx="10.1" ry="10.1"/>
<ellipse transform="matrix(0.9968 -7.982735e-02 7.982735e-02 0.9968 -17.9363 34.5375)" class="st3" cx="423" cy="241.6" rx="10.1" ry="10.1"/>
<ellipse transform="matrix(0.9968 -7.982735e-02 7.982735e-02 0.9968 -16.4852 44.842)" class="st3" cx="552.6" cy="228.6" rx="6.1" ry="6.1"/>
<ellipse transform="matrix(0.9968 -7.982735e-02 7.982735e-02 0.9968 -18.9683 35.3145)" class="st3" cx="432.2" cy="254.9" rx="6.1" ry="6.1"/>
<ellipse transform="matrix(0.9968 -7.982735e-02 7.982735e-02 0.9968 -18.6527 36.8128)" class="st3" cx="451.1" cy="251.7" rx="5" ry="5"/>
<ellipse transform="matrix(0.9966 -8.285419e-02 8.285419e-02 0.9966 -18.8945 1.9132)" class="st3" cx="13.6" cy="228.6" rx="11.7" ry="11.7"/>
<ellipse transform="matrix(0.9966 -8.285419e-02 8.285419e-02 0.9966 -16.9413 4.1807)" class="st3" cx="41.9" cy="206.2" rx="10.1" ry="10.1"/>
<ellipse transform="matrix(0.9966 -8.285419e-02 8.285419e-02 0.9966 -15.8711 3.3724)" class="st3" cx="32.7" cy="192.9" rx="6.1" ry="6.1"/>
<ellipse transform="matrix(0.9966 -8.285419e-02 8.285419e-02 0.9966 -22.0552 9.1574)" class="st3" cx="99.3" cy="270.3" rx="5" ry="5"/>
<ellipse transform="matrix(0.974 -0.2264 0.2264 0.974 -42.6686 22.7601)" class="st3" cx="77.9" cy="197.4" rx="6.3" ry="6.3"/>
<ellipse transform="matrix(0.974 -0.2264 0.2264 0.974 -58.3217 11.485)" class="st3" cx="20.9" cy="260" rx="10.5" ry="10.5"/>
<circle class="st3" cx="605.5" cy="376.5" r="8.6"/>
<ellipse transform="matrix(0.9966 -8.285419e-02 8.285419e-02 0.9966 -26.0458 83.9898)" class="st7" cx="998.9" cy="355.8" rx="6" ry="6"/>
<ellipse transform="matrix(0.9966 -8.285419e-02 8.285419e-02 0.9966 -16.1583 87.0405)" class="st7" cx="1040.6" cy="238.2" rx="10.1" ry="10.1"/>
<circle class="st7" cx="1069.8" cy="222.4" r="6.1"/>
<circle class="st5" cx="1007.7" cy="180.2" r="6.1"/>
<ellipse transform="matrix(0.9966 -8.285419e-02 8.285419e-02 0.9966 -37.1867 78.7418)" class="st5" cx="930.1" cy="487.4" rx="10.1" ry="10.1"/>
<circle class="st5" cx="851.4" cy="258.9" r="6.1"/>
<polygon class="st3" points="1.2,150 904,150 912.7,138.8 1.2,138.8 "/>
<path class="st8" d="M373.1,257.8c-1.2,1.4-15-6.2-23.7-9c-6.3-2-14.4,5.3-20.7,4.5c-2.7-0.3-5-0.6-6.6-0.7
	c-5.1-0.4-22.8-10.4-22.8-10.4s-16-10.7-19.4-15.1c-3.4-4.5-3.4-9.4-3.4-9.4s1.5-10.2,7.5-14.1s32.4-1.5,32.4-1.5s15.3,0.2,27.1,8.5
	c2.9,2.1,5.9,3.9,8.7,5.4c8.4,4.7,7.2,12.5,7.2,12.5s12.1,11.8,13.5,19.2"/>
<path class="st9" d="M367.4,223c0,0-6.6-2.2-14.8-6.7c-15.8,6-26.4,17.1-26.4,29.9c0,2.4,0.4,4.7,1.1,6.9c6.3,0.8,15.5,2.2,22.3,4.4
	c8.7,2.8,23.6,9.4,24.8,8l8.6-28C381.6,230.1,367.4,223,367.4,223z"/>
<path class="st5" d="M432.1,260.3c-18.1-4.9-49.8-23-60.6-32.8c-10.9-9.8-32.8,10-11.9,28.3c0,0,26.3,12.9,40.4,24.7
	s5.1,8,10.7,12.7"/>
<path class="st4" d="M356,241.6c-1.4-1.5-1.4-4.9-2.1-10.8c-4.5,6-4.9,15.7,5.7,25c0,0,24.7,15.5,38.8,27.3s6.7,5.4,12.3,10.1
	l6.7-10.3C401.7,273,362.3,248.5,356,241.6z"/>
<path class="st8" d="M420.6,491.7c0,0-18.9-7.8-24.3-20.3c0,0-1.6-5.4,3-12.2c0,0,6.3-6.6,30.6-9.2c0,0,19.3-3.9,39.2,5.2
	c19.8,9.1,37.4,4,37.4,4s6.3-0.4,8.5,1.5"/>
<path class="st10" d="M523.8,325.5c0,0-4.8-5.3-15.6-16.6c-16.9-17.8-52.1-29.8-73.7-47.3c-0.7-0.6-4.1-2.1-5.1-2.1
	c-18-1.2-25.1,20.7-20.3,32.8c9.8,8.1,17.5,9,21.7,12.6c5.5,4.7,25.5,24,27.9,30.1c2.3,6.1,25.5,39,45.1,54.8l43.8-46.5
	C547.7,343.3,536.6,331.6,523.8,325.5z"/>
<path class="st11" d="M515,355.8c-9.7-3.7-13.6-10.9-27-25.5c-4.7-5.2-20.3,4.5-26.6-14.8C459.1,308.3,409,275,409,275
	c-1.9,5.9-1.9,12.5,0,17.4c9.8,8.1,16.9,13.5,21.1,17.1c5.5,4.7,23,21.4,25.4,27.5c2.3,6.1,25.2,39.3,44.8,55.1l42.9-44.1
	C531.8,353,521.8,358.4,515,355.8z"/>
<path class="st5" d="M584.6,531c0,0-52.5-99.8-85.8-131.4c0,0,4.5-42.7,49.9-57.2c0,0,6-1.2,9.5-3.3c1.1-0.6,2.5-0.6,3.5,0.2
	c5.5,4.1,21.7,16.6,30,28.8c10.1,14.9,14.9,25.3,16.6,26.7c1.7,1.4,12.7,4.4,15.9,7.6"/>
<path class="st10" d="M937.2,166.3c1.8-4.1,0.7-6.7-0.5-7.4c-0.8-0.5-1.7-0.3-2.4,0.5c-3.5,4-14.1,15.7-17.6,18.5
	c-3.4,2.7-9.3,12.7-9.5,16c-0.1,2.9-4.3,12.5-8.3,21.8c-1,2.3-2,4.6-2.8,6.7c-4.2,9.9-20.4,27.2-21.1,28c-4.7,6-77.3,72.9-87.1,81.9
	c6.3,1.5,32.7,8.1,37.8,16.9c7.1,12.1,1,12.9,0,17.8c7.8-7.9,7.5-5.4,13.8-14.2c1.1-1.6-1-4.4,0.6-6.6c3.2-4.4,15,0.7,17.8-3.5
	c3.6-5.4,6.7-10.5,9.1-14.9c10.6-19.5,44.7-74.1,52.6-85.3c7.6-10.8,20.7-22.3,23-23.8c2.9-1.8,12-7.4,14.3-8.4
	c2-1,13.1-8.9,15.3-11.4c3.7-4.3,0.9-5.5,0.5-5.2c-3.1,2.5-17.1,11.5-19.6,12.3l-5,1.7c0,0,20.2-12.3,26.2-17.4
	c3.2-2.7,6.1-7.8,6.6-9.5c0.2-0.6,0.1-1.2-0.3-1.6c-0.4-0.4-1.1-0.6-1.6-0.5c-0.7,0.2-3,1.9-5.4,4c-1.7,1.5-8,5.8-10.2,7
	c-2.3,1.2-9.2,3.7-10.7,3.9c-0.1,0-0.3,0-0.5,0.1c-3.2,0.5-5.3,0.7-5.7-0.3c-0.7-1.6,3.9-4.7,6.8-6.4c0.4-0.2,12.6-8.5,15.9-12.2
	c2.1-2.4,5.9-5.3,8.3-7.8c3.9-3.9,3.5-4.7,3.1-5.9c-0.2-0.7-2.7-1.9-5.6-0.5c-0.7,0.2-4.7,3.2-6.9,5.2c-1.3,1.2-4.3,3.4-8.7,6.4
	c-1.2,0.8-3.5,2.6-5.6,4.2c-1.1,0.9-2.2,1.7-3,2.3s-2,1.5-3.2,2.4c-2.4,1.9-3.6,2.7-3.8,2.9c-1,0.6-2.3,0.5-3.1-0.3
	c-0.7-0.6-1.1-1.9-0.2-3.4c0.9-1.6,22.3-24.4,24.7-27c0.9-1.2,0.4-3-0.6-4c-1.2-1.1-2.8-1-4.5,0.3l-0.8,0.6c-0.9,0.7-2,1.5-3.6,2.9
	c-1.3,1.1-10.5,9.8-17.5,15.4c0,0-7.6,6.1-7.6,6.2c0,0-0.9-0.6-0.5-0.8C934.9,170.7,936.7,166.7,937.2,166.3z"/>
<path class="st10" d="M484.8,466.7c0,0-5.7-0.5-6.5-0.6c-5.1-0.5-25.9-1.6-49.1,10.1c0,0-10.5,3.8-11.7,21.9
	c-0.3,4.2,1.3,9.1,2.2,15c0,0,27.7,24.9,61.1,24.3"/>
<path class="st11" d="M474.6,510.3c-22.5,0-42.8-4.7-57.1-12.2c-0.3,4.2-0.1,9.3,0.9,15.2c0,0,26.3,27,59.7,26.4l2.7-29.5
	C478.8,510.2,476.7,510.3,474.6,510.3z"/>
<path class="st5" d="M574.4,438c0,0-28.2,12.1-35.8,15.1c-13.3,5.1-34.8,12.1-52.1,11.1c-1.3-0.1-2.5,0.5-3.3,1.5
	c-5.8,7.3-27.2,38-8.7,67c0,0,5.8,8.2,6.4,15.2c0.1,1.6,1.5,2.8,3.1,2.7c14.7-0.9,74.5-4,90.4,2.6"/>
<path class="st4" d="M559.2,415.3l-48.7-44.9c-10.2,14.9-11.7,29.3-11.7,29.3c29.7,37.7,39.8,53.5,39.8,53.5L638.9,404L559.2,415.3z
	"/>
<path class="st12" d="M628.2,855.6c0.7-4.8,2.6-36.7,2.6-37.1l1.4,0.1l-1,29.1c2.2-3.3,6.2-9.9,6.5-12.9c0.4-3.3,0.2-13.1,0.1-18.3
	c0-1.4-0.1-2.5-0.1-3c0-0.4,0-1.2,0-2.5c-0.2-14.6-0.1-21,0.3-22.1c0.1-0.2,0.1-0.9,0.1-1.5c0.1-3.3,0.2-10.1,8.1-18.3
	c9.6-9.9,55.4-62.8,57.4-65.2c3.7-4.5,32.6-39.7,41.7-67.3c1.2-3.7-1.4-9-1-12.4v-1.2l0.6-2c0,0,1-1.1,0-5.8c-1-4.9-8.2-32-5.3-37.3
	l-13.5-42.2L706,582.1c-0.1,1.2-13.9,4.4-14.6,10.1c-0.6,4.9-1.3,9.5-1.8,11l-0.1,0.2c-0.2,0.2-16,21.7-16.7,42.2v0.2
	c-0.5,1.6-12.6,39-23.2,50.5c-10.5,11.3-23.2,38-23.3,38.3c-0.3,0.6-8.1,14.9-12.7,18.6c-4.5,3.7-24.8,12.1-25.7,12.4h-0.2
	c-0.1,0-5.8,0.8-10.2,8.7c-2.9,5.2-7.1,12.3-12.5,21l-0.7,1.2c-0.8,1.3-3,4.8-2.6,5.4c0.6,0.7,3.6,1.2,6.6-0.2
	c1.5-0.7,4.3-3.5,7.1-6.1c3.2-3.2,6-5.9,7.6-6.4c0.7-0.2,1.5-0.6,2.4-1.1c2.6-1.3,5.9-3,9.4-1.7c0.1,0,0.3,0,0.4,0.1
	c0.6,0.3,1.1,1.1,1.3,5.1c0.2,5.1,1.9,22.5,1.9,22.7v0.1v0.1c-0.1,0.3-1.4,8.4-2.1,11.5c-0.2,0.9-0.7,2.8-1.4,5.3
	c-1.7,6.5-4.5,17.3-5,21.7c-0.6,5.1,0.9,10,1.3,11.2c0.3,0.1,0.8,0.2,1.2,0.1c0.4-0.1,0.6-0.4,0.9-0.9c1-2.2,5.9-16.2,6.9-21.9
	s8.5-23.3,10.2-25.8l0.1-0.2l0.2-0.1c0.3-0.1,0.6-0.1,1,0.2c0.6,0.5,0.8,1.6,0.4,3.7c-0.5,3.6-1.5,22.2-1,26.7
	c0.2,1.5,0.3,3.9,0.5,6.7c0.3,5.6,0.8,13.9,1.7,15.2c1,1.6,3.5,2.3,4.2,2.2c0.5-2,1.9-16.8,2.7-26l1-24.9l1.4,0.1l-1,25
	c-0.4,4.7-0.8,8.8-1.1,12.3l-0.4,10.3C622.1,865.6,627.5,860,628.2,855.6z"/>
<path class="st10" d="M745.3,636.6c1.2-3.7,2.1-7.3,2.5-10.6v-0.1l0.1-0.1c0,0,0.9-1.7-0.1-6.4c-1-4.9,1.8-31.9,4.7-37.2l-26.4-46.4
	l-33.3,43.6c-0.1,1.2-0.7,7.1-1.4,12.8C711.9,593.9,732.2,595.6,745.3,636.6z"/>
<path class="st4" d="M587,435.3c0,0-25.3,5.8-31.8,35.1c-6.5,29.3-1,64.1,10.7,76.4s17.8,6.4,17.8,6.4L587,435.3z"/>
<path class="st4" d="M489.4,510.6c-7.5,0-14.9-0.2-22.2-0.6c0.4,7.4,2.5,15.1,7.3,22.7c0,0,5.8,8.2,6.4,15.2
	c0.1,1.6,1.5,2.8,3.1,2.7c14.7-0.9,74.5-4,90.4,2.6v-51.5C549.2,507.4,520.3,510.6,489.4,510.6z"/>
<path class="st11" d="M805.2,316.4c-8.4,7.7-14.9,13.7-17.3,16c6.3,1.5,32.7,8.1,37.8,16.9c7.1,12.1,5.9,24,4.9,28.9
	c7.8-7.9,7.9-7.9,14.2-16.7c1.1-1.6,2.4-3.4,4-5.6c3.2-4.4,6.3-8.9,9.1-13.2C847.4,330.6,821.7,321.3,805.2,316.4z"/>
<path class="st5" d="M817.9,389.7c0,0-5.3,38.5-24.8,53.3c0,0-4.7,28.1-15.9,36.7c0,0,0.5,26.5-7.8,43.7c0,0-13,45.8-15.2,59.7
	c0,0-40.7-19.4-69.5,0l5-16.4c-12,0.6-47.6-7.5-47.6-7.5c-32.6-10.1-64.9,1.4-64.9,1.4c-7.3-17-13.5-49.3-13.5-49.3
	c-13.9-78,62.8-109.9,62.8-109.9c9.3-4.2,51-16.6,51-16.6l112.1-60.7c0,0,52,19.3,42.4,52.1C830.3,381.5,817.9,389.7,817.9,389.7z"
	/>
<path class="st5" d="M162.7,126.2c33.5,0,60.7,27.2,60.7,60.7c0,2-0.1,4-0.3,6c-3,30.7-27.1,45.4-58.6,45.4
	c-33.5,0-55.1-16.4-55.1-49.9c0-21.9,4.2-42.6,21.6-53.3C140.2,129.5,151.1,126.2,162.7,126.2z"/>
<path class="st4" d="M744.1,419.7c0,0-58.9-1.5-68-5c-9.2-3.5-18.9-9.2-15.1-12.3c7.5-6.2,17-6.4,23-7.3c13.6-2.1,55.1,0,55.1,0
	S759,410.9,744.1,419.7z"/>
<path class="st10" d="M711,392.7c0,0,3.2,12.6,0.8,19c0,0,34.6,11.9,55.4,4.9l3.7-2.9c2.5-13,9.4-31.2,9.4-31.2
	c14.9-14.6-14.7-30.1-8-43.8c6.4-13,17-15.7,15.5-26.1c-1.2-7.6,5.9-4.3-6.4-14c-20.1-15.8-50.3-27.6-67.8-27.2c0,0-3.8,3.5-7.3,7
	c0,0-11.9,10-13.3,28.3c-1.4,18.4-5.3,18.4-5.3,18.4s-8,8.3-12,8.9c0,0,0.2,6.4,2.7,8.4c0,0-0.8,17.9-0.6,25.8s1.9,14.3,1,16.8
	c0,0,6.6,8,25.7,6.9c0,0,3.1-0.1,6.4-0.3L711,392.7z"/>
<g>
	<path class="st11" d="M703.8,334.7l8.1-5.7l-5.7-4.9l18.3-40.6c-11.6-5.4-2-16-10.4-15.8c0,0-6,4.9-9.5,8.4c0,0-11.6,11.9-13,30.2
		c-1.4,18.4-3.9,18.8-3.9,18.8s-0.5,4.7-9.3,17.3c0,0-2.9,17.7-2.7,25.6s1.9,14,1,16.5c0,0,7,7.6,24.5,7.5
		C690.1,366.5,702.3,342.5,703.8,334.7z"/>
	<path class="st11" d="M708.7,413.6c0,0.1,0,0.1-0.1,0.2c0,0,0,0,0.1,0C708.7,413.7,708.7,413.7,708.7,413.6z"/>
</g>
<path class="st8" d="M808.9,361.1c6.4-13,9-31.7,7.4-42.1c-1.2-7.6-7-25.6-19.4-35.3c-10.3-8.1-27.2-12.2-43.6-14.3
	c-15.6-2-30.2,1.8-38.7,2c0,0-1.1,1.7-4.6,5.2c0,0-2.9,0.9-2.9,1c0.5,9.5,3.9,14.9,11.2,19.6c7.7,4.9,16.6,7.6,21.8,8.8
	c2.6,0.6,4,0.8,4,0.8l-2.9,3.8l-7.2,8.6l-4.2,27.3c0,0,20.8-18.1,26.8-12.5c8.8,8.2-3.2,23-11.8,24.2c0,0,16,14.3,7.8,43.7
	c-0.5,1.8,10.2,2.8,21.2,3.4c4.5-9.7,12.2-17.6,12.2-17.6C800.8,373,802.2,374.7,808.9,361.1z"/>
<path class="st4" d="M688,572.3l3-12.6l2.2-23.9c0,0-32.5-11-54.3-10.1s-71,6.3-71,6.3l7.8,30.8C575.7,562.8,644,549.8,688,572.3z"
	/>
<path class="st4" d="M173.2,224.5c-29.9,0-54.1-24.2-54.1-54.1c0-14,5.3-26.8,14.1-36.4c-18.6,10.4-31.1,30.2-31.1,53
	c0,33.5,27.2,60.7,60.7,60.7c32.1,0,58.4-25,60.5-56.6C215.1,210.7,195.8,224.5,173.2,224.5z"/>
<g>
	<path class="st8" d="M109.7,184.8l-3.8-5.7c-4.1,13.5-2.1,23.3,5,30C109.7,201,108.8,192.9,109.7,184.8z"/>
	<path class="st8" d="M142.5,218.5c-6,3.2-11.1,5.4-15.5,6.7c2.3,2.7,10.4,13.6,13.1,14.6c6,2.3,13.8,5,24.4,4.7l-2-16.1
		C155,225.6,149.3,222.4,142.5,218.5z"/>
	<path class="st8" d="M206.6,148.7c-9.1-10.6-19.6-16.1-30-17.9l4.3,8.2c6,2.4,12,6,17.2,10.7L206.6,148.7z"/>
	<path class="st8" d="M141.4,189.6c7.6-3.3,14.6-7.3,21.1-12.2c-0.8-8.2-2.4-16.2-5.1-23.9c-8.1-1.8-16.1-2.7-24.3-2.5
		c-4.2,7.1-7.6,14.5-9.9,22.3C128.8,179.5,134.8,185,141.4,189.6z"/>
	<path class="st8" d="M204.5,177.2c-5.7,3.8-11.1,7.4-15.8,10.2c0.6,8.7,1,16.5,1.3,24.4c5.6,1.5,11.2,1.5,16.9-0.2
		c4.7-4.3,7.6-11.2,8.4-21.4C213.4,184.6,209.8,180.2,204.5,177.2z"/>
</g>
<path class="st11" d="M739.2,393c-8.8,0.1-18.8,0-28.2-0.2c0,1.2-0.1,14.8-2.4,20.9c0,0,29.1,7.6,50.2,4.8
	C746.9,412.1,739.4,403.1,739.2,393z"/>
<path class="st9" d="M718.3,297.2c8.7-13.4,20.9-23.3,35-27.7c-15.6-1.9-30.7-2-39.3-1.8c0,0-6,4.9-9.5,8.4c0,0-0.1,0.1-0.1,0.2
	C704.9,285.7,711,292.5,718.3,297.2z"/>
<ellipse class="st2" cx="150" cy="757" rx="44.9" ry="4.3"/>
</svg>
