<?xml version="1.0" encoding="utf-8"?>
<!-- Generator: Adobe Illustrator 19.2.0, SVG Export Plug-In . SVG Version: 6.00 Build 0)  -->
<svg version="1.1" id="Layer_1" xmlns="http://www.w3.org/2000/svg" xmlns:xlink="http://www.w3.org/1999/xlink" x="0px" y="0px"
	 viewBox="0 0 32 30" style="enable-background:new 0 0 32 30;" xml:space="preserve">
<style type="text/css">
	.st0{fill:#0A7743;}
	.st1{fill:#F5EE31;}
	.st2{enable-background:new    ;}
</style>
<g>
	<path class="st0" d="M11.5,30c1.9,0,3.5-1.6,3.5-3.5H8C8,28.4,9.6,30,11.5,30z"/>
	<path class="st0" d="M20,22v-9.5C20,7.8,16.2,4,11.5,4S3,7.8,3,12.5V22H0v3h23v-3H20z"/>
</g>
<path class="st1" d="M29.7,1H17.3C16,1,15,2,15,3.3v9.3c0,1.3,1,2.3,2.3,2.3h12.3c1.3,0,2.3-1,2.3-2.3V3.3C32,2,31,1,29.7,1z"/>
<g class="st2">
	<path class="st0" d="M23.2,11h-4.8c0-0.6,0.1-1.1,0.4-1.5c0.3-0.4,0.6-0.8,1.1-1.1c0.2-0.2,0.5-0.3,0.7-0.5
		c0.2-0.2,0.5-0.3,0.7-0.5c0.2-0.2,0.4-0.4,0.5-0.6S22,6.3,22,6c0-0.1,0-0.3,0-0.4c0-0.1-0.1-0.3-0.2-0.4c-0.1-0.1-0.2-0.2-0.4-0.3
		c-0.2-0.1-0.4-0.1-0.6-0.1c-0.2,0-0.4,0-0.6,0.1S20,5.2,19.9,5.3c-0.1,0.2-0.2,0.3-0.2,0.6c0,0.2-0.1,0.4-0.1,0.7h-1.1
		c0-0.4,0.1-0.7,0.2-1.1c0.1-0.3,0.3-0.6,0.5-0.9c0.2-0.2,0.5-0.4,0.8-0.6c0.3-0.1,0.6-0.2,1-0.2c0.4,0,0.8,0.1,1.1,0.2
		c0.3,0.1,0.5,0.3,0.7,0.5C22.9,4.8,23,5,23.1,5.3c0.1,0.2,0.1,0.5,0.1,0.7c0,0.3,0,0.5-0.1,0.8C23,7,22.8,7.2,22.7,7.4
		c-0.1,0.2-0.3,0.4-0.5,0.5c-0.2,0.2-0.4,0.3-0.6,0.5S21.2,8.6,21,8.8c-0.2,0.1-0.4,0.3-0.6,0.4c-0.2,0.1-0.3,0.3-0.4,0.4
		s-0.2,0.3-0.3,0.4h3.4V11z"/>
	<path class="st0" d="M28.8,9.3h-0.9V11h-1.1V9.3h-3V8.2l3-4.2h1.1v4.4h0.9V9.3z M24.7,8.4h2.1V5.4h0L24.7,8.4z"/>
</g>
</svg>
