<?xml version="1.0" encoding="utf-8"?>
<!-- Generator: Adobe Illustrator 19.2.0, SVG Export Plug-In . SVG Version: 6.00 Build 0)  -->
<svg version="1.1" id="Layer_1" xmlns="http://www.w3.org/2000/svg" xmlns:xlink="http://www.w3.org/1999/xlink" x="0px" y="0px"
	 viewBox="0 0 102.7 23.3" style="enable-background:new 0 0 102.7 23.3;" xml:space="preserve">
<style type="text/css">
	.st0{fill:#138C4F;}
	.st1{fill:#23B874;}
	.st2{fill:#FFFFFF;}
	.st3{fill:url(#SVGID_1_);}
	.st4{fill:url(#SVGID_2_);}
</style>
<polygon class="st0" points="38.6,11 32,11 32,7.2 39.4,7.2 39.4,5.4 29.8,5.4 29.8,18.4 32,18.4 32,12.8 38.6,12.8 "/>
<path class="st0" d="M45.4,8.6c-2.8,0-5.2,2.3-5.2,5c0,2.7,2.3,5,5.2,5c2.8,0,5.2-2.3,5.2-5C50.6,10.9,48.3,8.6,45.4,8.6z
	 M45.3,16.9c-1.9,0-3.2-1.4-3.2-3.3c0-1.8,1.5-3.3,3.2-3.3c1.9,0,3.2,1.4,3.2,3.3C48.5,15.5,47.1,16.9,45.3,16.9z"/>
<path class="st0" d="M57.4,8.6c-2.8,0-5.2,2.3-5.2,5c0,2.7,2.3,5,5.2,5c2.8,0,5.2-2.3,5.2-5C62.6,10.9,60.3,8.6,57.4,8.6z
	 M57.4,16.9c-1.9,0-3.2-1.4-3.2-3.3c0-1.9,1.4-3.3,3.2-3.3c1.9,0,3.2,1.4,3.2,3.3C60.6,15.5,59.2,16.9,57.4,16.9z"/>
<path class="st0" d="M68.5,18.7c0.2,0,0.5,0,0.7-0.1c0.1,0,0.1,0,0.2,0V17h-0.3c-1.7,0-1.7-1.3-1.7-1.9v-4.7h2.1V8.7h-2.1V5.9h-2
	v2.7h-1.3v1.8h1.3v6.1C65.4,18.2,66.1,18.7,68.5,18.7z"/>
<path class="st0" d="M76.9,18.6c3.3,0,4.8-2.5,4.8-5.1c0-3-1.9-5-4.8-5c-2.4,0-3.5,1.5-3.5,1.5V4.9h-2v13.4h2v-1.4
	C73.4,16.9,74.5,18.6,76.9,18.6z M73.3,13.6c0-2,1.3-3.3,3.2-3.3s3.2,1.4,3.2,3.3c0,1.9-1.4,3.3-3.2,3.3
	C74.5,16.9,73.3,15.6,73.3,13.6z"/>
<path class="st0" d="M93.7,18.3V8.8h-2v1.4c0,0-1-1.6-3.5-1.6c-2.9,0-4.8,2-4.8,5c0,3,1.9,5,4.8,5c2.5,0,3.5-1.5,3.5-1.5v1.2H93.7z
	 M88.5,16.8c-1.9,0-3.2-1.4-3.2-3.3c0-2,1.3-3.3,3.2-3.3c1,0,1.8,0.3,2.4,1c0.6,0.6,0.9,1.5,0.8,2.4C91.7,15.5,90.5,16.8,88.5,16.8z
	"/>
<rect x="96.2" y="4.9" class="st0" width="2" height="13.4"/>
<rect x="100.7" y="4.9" class="st0" width="2" height="13.4"/>
<rect x="0.4" y="0.4" class="st1" width="22.4" height="22.4"/>
<g>
	<path class="st2" d="M0,0v23.3h23.3V0H0z M22.5,22.5H0.7V0.8h21.8V22.5z"/>
	
		<linearGradient id="SVGID_1_" gradientUnits="userSpaceOnUse" x1="6.65" y1="1159.2917" x2="6.65" y2="1153.0249" gradientTransform="matrix(1 0 0 1 0 -1136.9425)">
		<stop  offset="0" style="stop-color:#FFFFFF;stop-opacity:0"/>
		<stop  offset="1" style="stop-color:#FFFFFF"/>
	</linearGradient>
	<rect x="4.7" y="4.7" class="st3" width="3.9" height="17.8"/>
	
		<linearGradient id="SVGID_2_" gradientUnits="userSpaceOnUse" x1="-1960.4106" y1="1442.4399" x2="-1960.4106" y2="1436.173" gradientTransform="matrix(4.489659e-11 -1 1 4.489659e-11 -1420.0906 -1953.8107)">
		<stop  offset="0" style="stop-color:#FFFFFF;stop-opacity:0"/>
		<stop  offset="1" style="stop-color:#FFFFFF"/>
	</linearGradient>
	<polygon class="st4" points="4.7,4.7 4.7,8.5 22.5,8.5 22.5,4.7 	"/>
	<circle class="st2" cx="14" cy="14" r="2.3"/>
</g>
</svg>
