<?xml version="1.0" encoding="utf-8"?>
<!-- Generator: Adobe Illustrator 19.2.0, SVG Export Plug-In . SVG Version: 6.00 Build 0)  -->
<svg version="1.1" id="Layer_1" xmlns="http://www.w3.org/2000/svg" xmlns:xlink="http://www.w3.org/1999/xlink" x="0px" y="0px"
	 viewBox="0 0 140.5 137.6" style="enable-background:new 0 0 140.5 137.6;" xml:space="preserve">
<style type="text/css">
	.st0{fill:#FFFFFF;}
</style>
<path class="st0" d="M140.5,11.9c-6.6,0-11.9-5.3-11.9-11.9c0,6.6-5.3,11.9-11.9,11.9c6.6,0,11.9,5.3,11.9,11.9
	C128.6,17.2,133.9,11.9,140.5,11.9z"/>
<g>
	<path class="st0" d="M72.1,21.8c-1.8-0.5-3.7-0.9-5.6-1.2l-0.6,2.3c1.9,0.3,3.7,0.7,5.5,1.2L72.1,21.8z"/>
	<path class="st0" d="M75.9,23.1l-0.7,2.3c18,6.8,30.4,24.1,30.4,44.1c0,6.1-1.1,12-3.4,17.6l0.5,0.2l1.9,0.3
		c2.3-5.8,3.4-11.9,3.4-18.1C108,48.3,95,30.1,75.9,23.1z"/>
</g>
<path class="st0" d="M62.5,89c-3,4.2-7.9,6.9-13.5,6.9c-7.3,0-13.6-4.8-15.8-11.4l-20.7-3.2l19.9-0.6c0-0.5-0.1-1-0.1-1.5
	c0-9.2,7.5-16.7,16.7-16.7c0.3,0,0.5,0,0.8,0l11.7-50.4c-1-0.1-2.1-0.1-3.2-0.1C26.7,12,1,37.6,1,69.3c0,15.1,5.9,28.9,15.4,39.1
	L0,137.6c29.3-20.4,75-13.3,75-13.3l-43.2-14.1l62.6,3.4c5.9-4.9,10.9-10.9,14.4-17.7L62.5,89z M78.7,103.4c-1-0.1-1.6-0.9-1.6-1.9
	c0.1-1,0.9-1.6,1.9-1.6c1,0.1,1.6,0.9,1.6,1.9S79.7,103.5,78.7,103.4z M86.7,104.1c-1-0.1-1.6-0.9-1.6-1.9c0.1-1,0.9-1.6,1.9-1.6
	c1,0.1,1.6,0.9,1.6,1.9C88.5,103.5,87.6,104.2,86.7,104.1z M94.7,104.9c-1-0.1-1.6-0.9-1.6-1.9c0.1-1,0.9-1.6,1.9-1.6
	c1,0.1,1.6,0.9,1.6,1.9C96.5,104.3,95.6,105,94.7,104.9z"/>
<path class="st0" d="M49,68.2c-6.1,0-11.1,5-11.1,11.1s5,11.1,11.1,11.1s11.1-5,11.1-11.1S55.2,68.2,49,68.2z M49,73.2
	c-3.3,0-6.1,2.7-6.1,6.1h-2.5c0-4.7,3.8-8.6,8.6-8.6V73.2z"/>
</svg>
