<?xml version="1.0" encoding="utf-8"?>
<!-- Generator: Adobe Illustrator 19.2.0, SVG Export Plug-In . SVG Version: 6.00 Build 0)  -->
<svg version="1.1" id="Layer_1" xmlns="http://www.w3.org/2000/svg" xmlns:xlink="http://www.w3.org/1999/xlink" x="0px" y="0px"
	 viewBox="0 0 32 30" style="enable-background:new 0 0 32 30;" xml:space="preserve">
<style type="text/css">
	.st0{fill:#0D8C52;}
	.st1{fill:#F5EE31;}
	.st2{fill:#0A7743;}
	.st3{font-family:'MyriadPro-Regular';}
	.st4{font-size:10px;}
</style>
<g>
	<path class="st0" d="M11.5,30c1.9,0,3.5-1.6,3.5-3.5H8C8,28.4,9.6,30,11.5,30z"/>
	<path class="st0" d="M20,22v-9.5C20,7.8,16.2,4,11.5,4S3,7.8,3,12.5V22H0v3h23v-3H20z"/>
</g>
<path class="st1" d="M29.7,1H17.3C16,1,15,2,15,3.3v9.3c0,1.3,1,2.3,2.3,2.3h12.3c1.3,0,2.3-1,2.3-2.3V3.3C32,2,31,1,29.7,1z"/>
<text transform="matrix(1 0 0 1 18 11)" class="st2 st3 st4">24</text>
</svg>
