<?xml version="1.0" encoding="utf-8"?>
<!-- Generator: Adobe Illustrator 19.2.0, SVG Export Plug-In . SVG Version: 6.00 Build 0)  -->
<svg version="1.1" id="Layer_1" xmlns="http://www.w3.org/2000/svg" xmlns:xlink="http://www.w3.org/1999/xlink" x="0px" y="0px"
	 viewBox="0 0 879.2 744" style="enable-background:new 0 0 879.2 744;" xml:space="preserve">
<style type="text/css">
	.st0{fill:#ADB1BC;}
	.st1{opacity:0.8;fill:url(#SVGID_1_);}
	.st2{opacity:0.8;fill:url(#SVGID_2_);}
	.st3{opacity:0.8;fill:url(#SVGID_3_);}
	.st4{fill:url(#SVGID_4_);}
	.st5{fill:url(#SVGID_5_);}
	.st6{fill:#A3A7B2;}
	.st7{fill:#E1E3EA;}
	.st8{opacity:0.5;fill:url(#SVGID_6_);}
	.st9{fill:url(#SVGID_7_);}
	.st10{opacity:0.5;fill:url(#SVGID_8_);}
	.st11{fill:url(#SVGID_9_);}
	.st12{fill:url(#SVGID_10_);}
	.st13{opacity:0.5;fill:url(#SVGID_11_);}
	.st14{opacity:0.4;}
	.st15{fill-rule:evenodd;clip-rule:evenodd;fill:url(#SVGID_12_);}
	.st16{fill-rule:evenodd;clip-rule:evenodd;fill:url(#SVGID_13_);}
	.st17{fill-rule:evenodd;clip-rule:evenodd;fill:url(#SVGID_14_);}
	.st18{fill-rule:evenodd;clip-rule:evenodd;fill:url(#SVGID_15_);}
	.st19{fill-rule:evenodd;clip-rule:evenodd;fill:url(#SVGID_16_);}
	.st20{opacity:8.000000e-02;fill:url(#SVGID_17_);}
	.st21{opacity:0.2;fill:url(#SVGID_18_);}
	.st22{fill:url(#SVGID_19_);}
	.st23{opacity:0.7;fill:url(#SVGID_20_);}
	.st24{opacity:0.8;fill:url(#SVGID_21_);}
</style>
<path class="st0" d="M272.4,139.3c-1.2,1.4-16.1-5.2-24.8-8c-9.1-2.9-22.4-4.5-27.5-4.9C215,126,197.3,116,197.3,116
	s-16-10.7-19.4-15.1s-3.4-9.4-3.4-9.4s1.5-10.2,7.5-14.1c6-3.8,32.4-1.5,32.4-1.5s15.3,0.2,27.1,8.5c11.7,8.3,23.9,12.4,23.9,12.4
	s14.2,7.1,15.6,14.5"/>
<linearGradient id="SVGID_1_" gradientUnits="userSpaceOnUse" x1="204.412" y1="94.3915" x2="302.8204" y2="134.7413">
	<stop  offset="0" style="stop-color:#71758A;stop-opacity:0"/>
	<stop  offset="0.8203" style="stop-color:#696D82;stop-opacity:0.8203"/>
	<stop  offset="1" style="stop-color:#676B80"/>
</linearGradient>
<path class="st1" d="M272.4,139.3c-1.2,1.4-16.1-5.2-24.8-8c-9.1-2.9-22.4-4.5-27.5-4.9C215,126,197.3,116,197.3,116
	s-16-10.7-19.4-15.1s-3.4-9.4-3.4-9.4s1.5-10.2,7.5-14.1c6-3.8,32.4-1.5,32.4-1.5s15.3,0.2,27.1,8.5c11.7,8.3,23.9,12.4,23.9,12.4
	s14.2,7.1,15.6,14.5"/>
<path class="st0" d="M330.2,134.1c-18.1-4.9-49.8-23-60.6-32.8c-10.9-9.8-32.8,10-11.9,28.3c0,0,24.7,15.5,38.8,27.3
	s6.7,5.4,12.3,10.1"/>
<linearGradient id="SVGID_2_" gradientUnits="userSpaceOnUse" x1="289.2373" y1="123.8384" x2="273.7178" y2="176.4666">
	<stop  offset="0" style="stop-color:#71758A;stop-opacity:0"/>
	<stop  offset="0.8203" style="stop-color:#696D82;stop-opacity:0.8203"/>
	<stop  offset="1" style="stop-color:#676B80"/>
</linearGradient>
<path class="st2" d="M330.2,134.1c-18.1-4.9-49.8-23-60.6-32.8c-10.9-9.8-32.8,10-11.9,28.3c0,0,24.7,15.5,38.8,27.3
	s6.7,5.4,12.3,10.1"/>
<path class="st0" d="M318.7,365.6c0,0-18.9-7.8-24.3-20.3c0,0-1.6-5.4,3-12.2c0,0,6.3-6.6,30.6-9.2c0,0,19.3-3.9,39.2,5.2
	c19.8,9.1,37.4,4,37.4,4s6.3-0.4,8.5,1.5"/>
<linearGradient id="SVGID_3_" gradientUnits="userSpaceOnUse" x1="294.1231" y1="344.3344" x2="413.0748" y2="344.3344">
	<stop  offset="0" style="stop-color:#71758A;stop-opacity:0"/>
	<stop  offset="0.8203" style="stop-color:#696D82;stop-opacity:0.8203"/>
	<stop  offset="1" style="stop-color:#676B80"/>
</linearGradient>
<path class="st3" d="M318.7,365.6c0,0-18.9-7.8-24.3-20.3c0,0-1.6-5.4,3-12.2c0,0,6.3-6.6,30.6-9.2c0,0,19.3-3.9,39.2,5.2
	c19.8,9.1,37.4,4,37.4,4s6.3-0.4,8.5,1.5"/>
<linearGradient id="SVGID_4_" gradientUnits="userSpaceOnUse" x1="353.4135" y1="334.1668" x2="343.1938" y2="412.8586">
	<stop  offset="0" style="stop-color:#A3A7B2"/>
	<stop  offset="1" style="stop-color:#E1E3EA"/>
</linearGradient>
<path class="st4" d="M382.9,340.5c0,0-5.7-0.5-6.5-0.6c-5.1-0.5-25.9-1.6-49.1,10.1c0,0-16,5.8-10.8,37c0,0,26.3,27,59.7,26.4"/>
<linearGradient id="SVGID_5_" gradientUnits="userSpaceOnUse" x1="395.6999" y1="158.2577" x2="339.948" y2="225.1599">
	<stop  offset="0" style="stop-color:#A3A7B2"/>
	<stop  offset="1" style="stop-color:#E1E3EA"/>
</linearGradient>
<path class="st5" d="M421.9,199.3c0,0-4.8-5.3-15.6-16.6c-16.9-17.8-52.1-29.8-73.7-47.3c-0.7-0.6-4.1-2.1-5.1-2.1
	c-18-1.2-25.1,20.7-20.3,32.8c9.8,8.1,16.9,13.5,21.1,17.1c5.5,4.7,23,21.4,25.4,27.5c2.3,6.1,25.2,39.3,44.8,55.1l47.2-48.6
	C445.7,217.2,434.7,205.5,421.9,199.3z"/>
<path class="st6" d="M598.8,459.9c0,0-12.3,1.1-16.1-3l16.9-10.5L598.8,459.9z"/>
<path class="st7" d="M480.9,405.7c0,0-50.8-100.7-84.1-132.3c0,0,4.5-42.7,49.9-57.2c0,0,6-1.2,9.5-3.3c1.1-0.6,2.5-0.6,3.5,0.2
	c5.5,4.1,21.7,16.6,30,28.8c10.1,14.9,14.9,25.3,16.6,26.7c1.7,1.4,12.7,4.4,15.9,7.6"/>
<linearGradient id="SVGID_6_" gradientUnits="userSpaceOnUse" x1="461.9068" y1="259.4851" x2="389.8927" y2="317.875">
	<stop  offset="0" style="stop-color:#71758A;stop-opacity:0"/>
	<stop  offset="0.8203" style="stop-color:#696D82;stop-opacity:0.8203"/>
	<stop  offset="1" style="stop-color:#676B80"/>
</linearGradient>
<path class="st8" d="M438.4,329.7l48.1-27.8l3.2-60c-8.1-12-23.9-24.3-29.7-28.6c-1.2-0.9-2.7-1-4-0.3c-3.5,2-9.4,3.2-9.4,3.2
	c-45.4,14.6-49.9,57.2-49.9,57.2C409.4,285.4,424.5,307.2,438.4,329.7z"/>
<path class="st7" d="M472.4,311.9c0,0-28.2,12.1-35.8,15.1c-13.3,5.1-34.8,12.1-52.1,11.1c-1.3-0.1-2.5,0.5-3.3,1.5
	c-5.8,7.3-27.2,38-8.7,67c0,0,5.8,8.2,6.4,15.2c0.1,1.6,1.5,2.8,3.1,2.7c14.7-0.9,74.5-4,90.4,2.6"/>
<linearGradient id="SVGID_7_" gradientUnits="userSpaceOnUse" x1="459.7406" y1="576.7326" x2="674.8878" y2="576.7326">
	<stop  offset="0" style="stop-color:#A3A7B2"/>
	<stop  offset="1" style="stop-color:#E1E3EA"/>
</linearGradient>
<path class="st9" d="M526.2,729.4c0.7-4.8,2.6-36.7,2.6-37.1l1.4,0.1l-1,29.1c2.2-3.3,6.2-9.9,6.5-12.9c0.4-3.3,0.2-13.1,0.1-18.3
	c0-1.4-0.1-2.5-0.1-3c0-0.4,0-1.2,0-2.5c-0.2-14.6-0.1-21,0.3-22.1c0.1-0.2,0.1-0.9,0.1-1.5c0.1-3.3,0.2-10.1,8.1-18.3
	c9.6-9.9,55.4-62.8,57.4-65.2c4.2-5.1,40.9-49.8,44.2-78l0-0.1l0.1-0.1c0,0,0.9-1.7-0.1-6.4c-1-4.9,1.8-31.9,4.7-37.2l-26.4-46.4
	l-33.3,43.6c-0.2,2.3-2,20.7-3.2,23.9l-0.1,0.2c-0.2,0.2-16,21.7-16.7,42.2l0,0.2c-0.5,1.6-12.6,39-23.2,50.5
	c-10.5,11.3-23.2,38-23.3,38.3c-0.3,0.6-8.1,14.9-12.7,18.6c-4.5,3.7-24.8,12.1-25.7,12.4l-0.2,0c-0.1,0-5.8,0.8-10.2,8.7
	c-2.9,5.2-7.1,12.3-12.5,21l-0.7,1.2c-0.8,1.3-3,4.8-2.6,5.4c0.6,0.7,3.6,1.2,6.6-0.2c1.5-0.7,4.3-3.5,7.1-6.1
	c3.2-3.2,6-5.9,7.6-6.4c0.7-0.2,1.5-0.6,2.4-1.1c2.6-1.3,5.9-3,9.4-1.7c0.1,0,0.3,0,0.4,0.1c0.6,0.3,1.1,1.1,1.3,5.1
	c0.2,5.1,1.9,22.5,1.9,22.7l0,0.1l0,0.1c-0.1,0.3-1.4,8.4-2.1,11.5c-0.2,0.9-0.7,2.8-1.4,5.3c-1.7,6.5-4.5,17.3-5,21.7
	c-0.6,5.1,0.9,10,1.3,11.2c0.3,0.1,0.8,0.2,1.2,0.1c0.4-0.1,0.6-0.4,0.9-0.9c1-2.2,5.9-16.2,6.9-21.9c1-5.7,8.5-23.3,10.2-25.8
	l0.1-0.2l0.2-0.1c0.3-0.1,0.6-0.1,1,0.2c0.6,0.5,0.8,1.6,0.4,3.7c-0.5,3.6-1.5,22.2-1,26.7c0.2,1.5,0.3,3.9,0.5,6.7
	c0.3,5.6,0.8,13.9,1.7,15.2c1,1.6,3.5,2.3,4.2,2.2c0.5-2,1.9-16.8,2.7-26l1-24.9l1.4,0.1l-1,25c-0.4,4.7-0.8,8.8-1.1,12.3l-0.4,10.3
	C520.1,739.4,525.6,733.8,526.2,729.4z"/>
<linearGradient id="SVGID_8_" gradientUnits="userSpaceOnUse" x1="447.0612" y1="355.6001" x2="501.6603" y2="372.4344">
	<stop  offset="0" style="stop-color:#71758A;stop-opacity:0"/>
	<stop  offset="0.8203" style="stop-color:#696D82;stop-opacity:0.8203"/>
	<stop  offset="1" style="stop-color:#676B80"/>
</linearGradient>
<path class="st10" d="M512.1,307.7c-17.1,8.2-10.4-9.8-30.3,0C440.4,328,435.1,399,440.5,407c5.4,8.1,5.6,16.3,5.6,16.3
	s28.4,2.9,35.9,3.2c7.5,0.4,11.7-46.7,11.7-48.2C493.7,376.9,512.1,307.7,512.1,307.7z"/>
<linearGradient id="SVGID_9_" gradientUnits="userSpaceOnUse" x1="820.6066" y1="155.6309" x2="758.8677" y2="109.9441">
	<stop  offset="0" style="stop-color:#A3A7B2"/>
	<stop  offset="1" style="stop-color:#E1E3EA"/>
</linearGradient>
<path class="st11" d="M835.2,40.1c1.8-4.1,0.7-6.7-0.5-7.4c-0.8-0.5-1.7-0.3-2.4,0.5c-3.5,4-14.1,15.7-17.6,18.5
	c-3.4,2.7-9.3,12.7-9.5,16c-0.1,2.9-4.3,12.5-8.3,21.8c-1,2.3-2,4.6-2.8,6.7c-4.2,9.9-20.4,27.2-21.1,28c-4.7,6-77.3,72.9-87.1,81.9
	c6.3,1.5,32.7,8.1,37.8,16.9c7.1,12.1,5.9,24,4.9,28.9c7.8-7.9,7.9-7.9,14.2-16.7c1.1-1.6,2.4-3.4,4-5.6c7.3-10,13.9-20.2,18.2-28
	c10.6-19.5,44.7-74.1,52.6-85.3c7.6-10.8,20.7-22.3,23-23.8c2.9-1.8,12-7.4,14.3-8.4c2-1,13.1-8.9,15.3-11.4
	c3.7-4.3,0.9-5.5,0.5-5.2c-3.1,2.5-17.1,11.5-19.6,12.3l-5,1.7c0,0,20.2-12.3,26.2-17.4c3.2-2.7,6.1-7.8,6.6-9.5
	c0.2-0.6,0.1-1.2-0.3-1.6c-0.4-0.4-1.1-0.6-1.6-0.5c-0.7,0.2-3,1.9-5.4,4c-1.7,1.5-8,5.8-10.2,7c-2.3,1.2-9.2,3.7-10.7,3.9
	c-0.1,0-0.3,0-0.5,0.1c-3.2,0.5-5.3,0.7-5.7-0.3c-0.7-1.6,3.9-4.7,6.8-6.4c0.4-0.2,12.6-8.5,15.9-12.2c2.1-2.4,5.9-5.3,8.3-7.8
	c3.9-3.9,3.5-4.7,3.1-5.9c-0.2-0.7-2.7-1.9-5.6-0.5c-0.7,0.2-4.7,3.2-6.9,5.2c-1.3,1.2-4.3,3.4-8.7,6.4c-1.2,0.8-3.5,2.6-5.6,4.2
	c-1.1,0.9-2.2,1.7-3,2.3c-0.8,0.6-2,1.5-3.2,2.4c-2.4,1.9-3.6,2.7-3.8,2.9c-1,0.6-2.3,0.5-3.1-0.3c-0.7-0.6-1.1-1.9-0.2-3.4
	c0.9-1.6,22.3-24.4,24.7-27c0.9-1.2,0.4-3-0.6-4c-1.2-1.1-2.8-1-4.5,0.3l-0.8,0.6c-0.9,0.7-2,1.5-3.6,2.9
	c-1.3,1.1-10.5,9.8-17.5,15.4c0,0-7.6,6.1-7.6,6.2c0,0-0.9-0.6-0.5-0.8C833,44.6,834.7,40.5,835.2,40.1z"/>
<path class="st7" d="M715.9,263.6c0,0-5.3,38.5-24.8,53.3c0,0-4.7,28.1-15.9,36.7c0,0,0.5,26.5-7.8,43.7c0,0-13,45.8-15.2,59.7
	c0,0-40.7-19.4-69.5,0l4.9-16.4c-12,0.6-47.6-7.5-47.6-7.5c-32.6-10.1-64.9,1.4-64.9,1.4c-7.3-17-13.5-49.3-13.5-49.3
	c-13.9-78,62.8-109.9,62.8-109.9c9.3-4.2,51-16.6,51-16.6l112.1-60.7c0,0,52,19.3,42.4,52.1C728.3,255.3,715.9,263.6,715.9,263.6z"
	/>
<radialGradient id="SVGID_10_" cx="97.5267" cy="106.2234" r="137.6753" gradientUnits="userSpaceOnUse">
	<stop  offset="0.2414" style="stop-color:#E1E3EA"/>
	<stop  offset="0.4166" style="stop-color:#D9DCE3"/>
	<stop  offset="0.6811" style="stop-color:#C5C8D0"/>
	<stop  offset="1" style="stop-color:#A3A7B2"/>
</radialGradient>
<circle class="st12" cx="60.7" cy="60.7" r="60.7"/>
<linearGradient id="SVGID_11_" gradientUnits="userSpaceOnUse" x1="525.9893" y1="382.4769" x2="539.525" y2="463.8945">
	<stop  offset="0" style="stop-color:#71758A;stop-opacity:0"/>
	<stop  offset="0.8203" style="stop-color:#696D82;stop-opacity:0.8203"/>
	<stop  offset="1" style="stop-color:#676B80"/>
</linearGradient>
<path class="st13" d="M460.6,356c-1,8.9-0.8,18.6,1.1,29.1c0,0,6.2,32.3,13.5,49.3c0,0,32.3-11.4,64.9-1.4c0,0,35.6,8,47.6,7.5
	l-0.4-49.3c7.2-23.7-4.2-23.3-4.1-30.2L460.6,356z"/>
<g class="st14">
	<linearGradient id="SVGID_12_" gradientUnits="userSpaceOnUse" x1="97.5763" y1="153.8043" x2="-49.7669" y2="14.9915">
		<stop  offset="0" style="stop-color:#000000;stop-opacity:0"/>
		<stop  offset="0.111" style="stop-color:#070708;stop-opacity:0.111"/>
		<stop  offset="0.2788" style="stop-color:#1A1B1C;stop-opacity:0.2788"/>
		<stop  offset="0.4826" style="stop-color:#393B3E;stop-opacity:0.4826"/>
		<stop  offset="0.7146" style="stop-color:#65676E;stop-opacity:0.7146"/>
		<stop  offset="0.9674" style="stop-color:#9B9FAA;stop-opacity:0.9674"/>
		<stop  offset="1" style="stop-color:#A3A7B2"/>
	</linearGradient>
	<path class="st15" d="M7.7,58.6L4,53c-4.1,13.5-2.1,23.3,5,30C7.8,74.9,6.9,66.8,7.7,58.6z"/>
	<linearGradient id="SVGID_13_" gradientUnits="userSpaceOnUse" x1="97.6402" y1="153.7365" x2="-49.703" y2="14.9237">
		<stop  offset="0" style="stop-color:#000000;stop-opacity:0"/>
		<stop  offset="0.111" style="stop-color:#070708;stop-opacity:0.111"/>
		<stop  offset="0.2788" style="stop-color:#1A1B1C;stop-opacity:0.2788"/>
		<stop  offset="0.4826" style="stop-color:#393B3E;stop-opacity:0.4826"/>
		<stop  offset="0.7146" style="stop-color:#65676E;stop-opacity:0.7146"/>
		<stop  offset="0.9674" style="stop-color:#9B9FAA;stop-opacity:0.9674"/>
		<stop  offset="1" style="stop-color:#A3A7B2"/>
	</linearGradient>
	<path class="st16" d="M40.5,92.4c-6,3.2-11.1,5.4-15.5,6.7c2.3,2.7,10.4,13.6,13.1,14.6c6,2.3,13.8,5,24.4,4.7l-2-16.1
		C53.1,99.5,47.4,96.3,40.5,92.4z"/>
	<linearGradient id="SVGID_14_" gradientUnits="userSpaceOnUse" x1="162.904" y1="84.462" x2="15.5608" y2="-54.3507">
		<stop  offset="0" style="stop-color:#000000;stop-opacity:0"/>
		<stop  offset="0.111" style="stop-color:#070708;stop-opacity:0.111"/>
		<stop  offset="0.2788" style="stop-color:#1A1B1C;stop-opacity:0.2788"/>
		<stop  offset="0.4826" style="stop-color:#393B3E;stop-opacity:0.4826"/>
		<stop  offset="0.7146" style="stop-color:#65676E;stop-opacity:0.7146"/>
		<stop  offset="0.9674" style="stop-color:#9B9FAA;stop-opacity:0.9674"/>
		<stop  offset="1" style="stop-color:#A3A7B2"/>
	</linearGradient>
	<path class="st17" d="M104.7,22.6C95.6,12,85.1,6.5,74.7,4.7l4.3,8.2c6,2.4,12,6,17.2,10.7L104.7,22.6z"/>
	<linearGradient id="SVGID_15_" gradientUnits="userSpaceOnUse" x1="127.7547" y1="121.7714" x2="-19.5885" y2="-17.0414">
		<stop  offset="0" style="stop-color:#000000;stop-opacity:0"/>
		<stop  offset="0.111" style="stop-color:#070708;stop-opacity:0.111"/>
		<stop  offset="0.2788" style="stop-color:#1A1B1C;stop-opacity:0.2788"/>
		<stop  offset="0.4826" style="stop-color:#393B3E;stop-opacity:0.4826"/>
		<stop  offset="0.7146" style="stop-color:#65676E;stop-opacity:0.7146"/>
		<stop  offset="0.9674" style="stop-color:#9B9FAA;stop-opacity:0.9674"/>
		<stop  offset="1" style="stop-color:#A3A7B2"/>
	</linearGradient>
	<path class="st18" d="M39.5,63.5c7.6-3.3,14.6-7.3,21.1-12.2c-0.8-8.2-2.4-16.2-5.1-23.9c-8.1-1.8-16.1-2.7-24.3-2.5
		c-4.2,7.1-7.6,14.5-9.9,22.3C26.8,53.3,32.8,58.8,39.5,63.5z"/>
	<linearGradient id="SVGID_16_" gradientUnits="userSpaceOnUse" x1="139.4033" y1="109.4069" x2="-7.9398" y2="-29.4059">
		<stop  offset="0" style="stop-color:#000000;stop-opacity:0"/>
		<stop  offset="0.111" style="stop-color:#070708;stop-opacity:0.111"/>
		<stop  offset="0.2788" style="stop-color:#1A1B1C;stop-opacity:0.2788"/>
		<stop  offset="0.4826" style="stop-color:#393B3E;stop-opacity:0.4826"/>
		<stop  offset="0.7146" style="stop-color:#65676E;stop-opacity:0.7146"/>
		<stop  offset="0.9674" style="stop-color:#9B9FAA;stop-opacity:0.9674"/>
		<stop  offset="1" style="stop-color:#A3A7B2"/>
	</linearGradient>
	<path class="st19" d="M102.5,51.1c-5.7,3.8-11.1,7.4-15.8,10.2c0.6,8.7,1,16.5,1.3,24.4c5.6,1.5,11.2,1.5,16.9-0.2
		c4.7-4.3,7.6-11.2,8.4-21.4C111.4,58.4,107.9,54.1,102.5,51.1z"/>
</g>
<linearGradient id="SVGID_17_" gradientUnits="userSpaceOnUse" x1="575.2258" y1="264.95" x2="622.5362" y2="285.3174">
	<stop  offset="0" style="stop-color:#000000;stop-opacity:0"/>
	<stop  offset="1" style="stop-color:#000000"/>
</linearGradient>
<path class="st20" d="M628.2,256.3l-52.7,2.3c0,0-39.7,11.9-50.3,16.3c0,0,24.2,4.5,31.9,7.3c41.2,15.3,89.2,10.7,89.2,10.7
	C655.4,276.1,628.2,256.3,628.2,256.3z"/>
<linearGradient id="SVGID_18_" gradientUnits="userSpaceOnUse" x1="624.1685" y1="331.5769" x2="694.1716" y2="331.5769">
	<stop  offset="0" style="stop-color:#A3A7B2;stop-opacity:0"/>
	<stop  offset="0.2362" style="stop-color:#9B9FAC;stop-opacity:0.2362"/>
	<stop  offset="0.593" style="stop-color:#878B9A;stop-opacity:0.593"/>
	<stop  offset="1" style="stop-color:#676B80"/>
</linearGradient>
<path class="st21" d="M704.3,206.2l-76.9,37.1l-17.8,205.1c22.1-1.2,42.5,8.5,42.5,8.5c2.2-13.9,15.2-59.7,15.2-59.7
	c8.3-17.2,7.8-43.7,7.8-43.7c11.2-8.6,15.9-36.7,15.9-36.7c19.5-14.8,24.8-53.3,24.8-53.3s12.4-8.2,14-13.5
	C735.8,229.9,718.6,214.9,704.3,206.2z"/>
<linearGradient id="SVGID_19_" gradientUnits="userSpaceOnUse" x1="624.2257" y1="120.7027" x2="654.4973" y2="276.6299">
	<stop  offset="0" style="stop-color:#A3A7B2"/>
	<stop  offset="1" style="stop-color:#E1E3EA"/>
</linearGradient>
<path class="st22" d="M609.1,266.5c0,0,0,14.6-2.4,21c0,0,37.8,9.9,58.6,2.9l3.7-2.9c2.5-13,15-26,15-26
	c14.9-14.6,16.2-12.9,22.9-26.6c6.4-13,9-31.7,7.4-42.1c-1.2-7.6-7-25.6-19.4-35.3c-20.1-15.8-65.4-16.5-82.9-16.1
	c0,0-6,4.9-9.5,8.4c0,0-11.6,11.9-13,30.2c-1.4,18.4-3.9,18.8-3.9,18.8s-8,8.3-12,8.9c0,0,0.2,6.4,2.7,8.4c0,0-2.9,17.7-2.7,25.6
	c0.2,7.8,1.9,14,1,16.5c0,0,8.7,8.5,27.8,7.4c0,0,3.1-0.1,6.4-0.3L609.1,266.5z"/>
<linearGradient id="SVGID_20_" gradientUnits="userSpaceOnUse" x1="603.0919" y1="275.8755" x2="642.1404" y2="276.7409">
	<stop  offset="0" style="stop-color:#A3A7B2"/>
	<stop  offset="1" style="stop-color:#E1E3EA;stop-opacity:0"/>
</linearGradient>
<path class="st23" d="M609.1,266.5c0,0,0,14.6-2.4,21c0,0,37.8,9.9,58.6,2.9l3.7-2.9c2.5-13-11-26.5-11-26.5
	c-29.3,2-33.4,3.5-49,4.3L609.1,266.5z"/>
<linearGradient id="SVGID_21_" gradientUnits="userSpaceOnUse" x1="685.2751" y1="264.6161" x2="662.4645" y2="185.8548">
	<stop  offset="0" style="stop-color:#A3A7B2;stop-opacity:0"/>
	<stop  offset="1" style="stop-color:#A3A7B2"/>
</linearGradient>
<path class="st24" d="M707,234.9c6.4-13,9-31.7,7.4-42.1c-1.2-7.6-7-25.6-19.4-35.3c-20.1-15.8-65.4-16.5-82.9-16.1
	c0,0-6,4.9-9.5,8.4c0,0-0.1,0.1-0.1,0.2c1,19.4,25.6,27.4,35.7,29.8c2.6,0.6,4,0.8,4,0.8l-2.9,3.8L632,193l-4.2,27.3
	c0,0,20.8-18.1,26.8-12.5c8.8,8.2-3.2,23-11.8,24.2c0,0,16,14.3,7.8,43.7c-0.5,1.8,10.2,2.8,21.2,3.4c4.5-9.7,12.2-17.6,12.2-17.6
	C698.9,246.9,700.2,248.6,707,234.9z"/>
</svg>
