<?xml version="1.0" encoding="utf-8"?>
<!-- Generator: Adobe Illustrator 19.2.0, SVG Export Plug-In . SVG Version: 6.00 Build 0)  -->
<svg version="1.1" id="Layer_1" xmlns:sketch="http://www.bohemiancoding.com/sketch/ns"
	 xmlns="http://www.w3.org/2000/svg" xmlns:xlink="http://www.w3.org/1999/xlink" x="0px" y="0px" viewBox="0 0 20 20"
	 style="enable-background:new 0 0 20 20;" xml:space="preserve">
<style type="text/css">
	.st0{fill:#3D3D94;}
</style>
<title></title>
<desc></desc>
<g id="Page-1">
	<g id="Core" transform="translate(-464.000000, -380.000000)">
		<g id="settings" transform="translate(464.000000, 380.000000)">
			<path id="Shape" class="st0" d="M17.4,11c0-0.3,0.1-0.6,0.1-1s0-0.7-0.1-1l2.1-1.7c0.2-0.2,0.2-0.4,0.1-0.6l-2-3.5
				C17.5,3.1,17.3,3,17,3.1l-2.5,1c-0.5-0.4-1.1-0.7-1.7-1l-0.4-2.6C12.5,0.2,12.2,0,12,0H8C7.8,0,7.5,0.2,7.5,0.4L7.1,3.1
				C6.5,3.3,6,3.7,5.4,4.1L3,3.1C2.7,3,2.5,3.1,2.3,3.3l-2,3.5c-0.1,0.1,0,0.4,0.2,0.6L2.6,9c0,0.3-0.1,0.6-0.1,1s0,0.7,0.1,1
				l-2.1,1.7c-0.2,0.2-0.2,0.4-0.1,0.6l2,3.5C2.5,16.9,2.7,17,3,16.9l2.5-1c0.5,0.4,1.1,0.7,1.7,1l0.4,2.6c0,0.2,0.2,0.4,0.5,0.4h4
				c0.2,0,0.5-0.2,0.5-0.4l0.4-2.6c0.6-0.3,1.2-0.6,1.7-1l2.5,1c0.2,0.1,0.5,0,0.6-0.2l2-3.5c0.1-0.2,0.1-0.5-0.1-0.6L17.4,11
				L17.4,11z M10,13.5c-1.9,0-3.5-1.6-3.5-3.5S8.1,6.5,10,6.5s3.5,1.6,3.5,3.5S11.9,13.5,10,13.5L10,13.5z"/>
		</g>
	</g>
</g>
</svg>
