<?xml version="1.0" encoding="utf-8"?>
<!-- Generator: Adobe Illustrator 19.2.0, SVG Export Plug-In . SVG Version: 6.00 Build 0)  -->
<svg version="1.1" id="Layer_1" xmlns="http://www.w3.org/2000/svg" xmlns:xlink="http://www.w3.org/1999/xlink" x="0px" y="0px"
	 viewBox="0 0 20 20" style="enable-background:new 0 0 20 20;" xml:space="preserve">
<style type="text/css">
	.st0{fill:#8585A5;}
</style>
<g>
	<path class="st0" d="M10,2c4.4,0,8,3.6,8,8s-3.6,8-8,8s-8-3.6-8-8S5.6,2,10,2 M10,0C4.5,0,0,4.5,0,10s4.5,10,10,10s10-4.5,10-10
		S15.5,0,10,0L10,0z"/>
</g>
<path class="st0" d="M6.5,10L6.5,10C5.7,10,5,9.3,5,8.5v-1C5,6.7,5.7,6,6.5,6h0C7.3,6,8,6.7,8,7.5v1C8,9.3,7.3,10,6.5,10z"/>
<path class="st0" d="M13.5,10L13.5,10C12.7,10,12,9.3,12,8.5v-1C12,6.7,12.7,6,13.5,6h0C14.3,6,15,6.7,15,7.5v1
	C15,9.3,14.3,10,13.5,10z"/>
<path class="st0" d="M5.3,12c0.7,2.3,2.5,4,4.7,4s4-1.7,4.7-4H5.3z"/>
</svg>
