<?xml version="1.0" encoding="utf-8"?>
<!-- Generator: Adobe Illustrator 19.2.0, SVG Export Plug-In . SVG Version: 6.00 Build 0)  -->
<svg version="1.1" id="Layer_1" xmlns="http://www.w3.org/2000/svg" xmlns:xlink="http://www.w3.org/1999/xlink" x="0px" y="0px"
	 viewBox="0 0 20 20" style="enable-background:new 0 0 20 20;" xml:space="preserve">
<style type="text/css">
	.st0{fill:#8585A5;}
</style>
<path class="st0" d="M10,0C4.5,0,0,4.5,0,10s4.5,10,10,10s10-4.5,10-10S15.5,0,10,0z M12,5.5C12,4.7,12.7,4,13.5,4S15,4.7,15,5.5v2
	C15,8.3,14.3,9,13.5,9S12,8.3,12,7.5V5.5z M5,5.5C5,4.7,5.7,4,6.5,4S8,4.7,8,5.5v2C8,8.3,7.3,9,6.5,9S5,8.3,5,7.5V5.5z M10,17
	c-3.2,0-5.8-2.1-6.7-5h13.4C15.8,14.9,13.2,17,10,17z"/>
</svg>
