<?xml version="1.0" encoding="utf-8"?>
<!-- Generator: Adobe Illustrator 19.2.0, SVG Export Plug-In . SVG Version: 6.00 Build 0)  -->
<svg version="1.1" id="Layer_1" xmlns="http://www.w3.org/2000/svg" xmlns:xlink="http://www.w3.org/1999/xlink" x="0px" y="0px"
	 viewBox="0 0 100 100" style="enable-background:new 0 0 100 100;" xml:space="preserve">
<style type="text/css">
	.st0{opacity:0.5;}
	.st1{fill:url(#SVGID_1_);}
	.st2{fill:url(#SVGID_2_);}
</style>
<g class="st0">
	
		<linearGradient id="SVGID_1_" gradientUnits="userSpaceOnUse" x1="6.466" y1="16.4846" x2="83.9206" y2="74.2581" gradientTransform="matrix(1 0 0 -1 0 100)">
		<stop  offset="0" style="stop-color:#A5A9B4;stop-opacity:0"/>
		<stop  offset="1" style="stop-color:#A5A9B4;stop-opacity:0.5"/>
	</linearGradient>
	<path class="st1" d="M77.7,26.9l4.9-5.7l-5-4.3l-5,5.8c-5.5-3.8-12.1-6.3-19.1-6.9V11h7.7V5.2H38.7V11h7.7v4.8
		C26,17.6,10,34.7,10,55.6c0,22.1,17.9,39.9,39.9,39.9c22.1,0,39.9-17.9,39.9-39.9C89.9,44.3,85.2,34.2,77.7,26.9z M49.9,87
		c-17.4,0-31.4-14.1-31.4-31.4c0-17.4,14.1-31.4,31.4-31.4c17.4,0,31.4,14.1,31.4,31.4C81.4,72.9,67.3,87,49.9,87z"/>
	
		<linearGradient id="SVGID_2_" gradientUnits="userSpaceOnUse" x1="10.1106" y1="11.5985" x2="87.5652" y2="69.372" gradientTransform="matrix(1 0 0 -1 0 100)">
		<stop  offset="0" style="stop-color:#A5A9B4;stop-opacity:0"/>
		<stop  offset="1" style="stop-color:#A5A9B4;stop-opacity:0.5"/>
	</linearGradient>
	<path class="st2" d="M49.9,28.5v27.1l19.5,18.8c4.7-4.9,7.6-11.5,7.6-18.8C77,40.6,64.9,28.5,49.9,28.5z"/>
</g>
</svg>
